<ttFont>
          <CharString index="0">
            -98 callgsubr
            -94 callsubr
            -96 callgsubr
            return
          </CharString>
          <CharString index="1">
            hlineto
            -26 -5 -60 callsubr
            5 6 26 vhcurveto
            return
          </CharString>
          <CharString index="2">
            vlineto
            -99 callgsubr
            return
          </CharString>
          <CharString index="3">
            vlineto
            -53 25 -25 53 vhcurveto
            286 -92 callgsubr
            7 -6 -25 hvcurveto
            return
          </CharString>
          <CharString index="4">
            rmoveto
            -28 -11 -10 -30 vhcurveto
            -465 -95 callsubr
            216 hlineto
            return
          </CharString>
          <CharString index="5">
            -55 callgsubr
            -113 -398 hlineto
            -85 callgsubr
            return
          </CharString>
          <CharString index="6">
            hlineto
            -97 callgsubr
            return
          </CharString>
          <CharString index="7">
            -48 callsubr
            -96 112 84 -3 callsubr
            232 -20 callgsubr
            -177 -64 callgsubr
            -264 49 -112 -295 hlineto
            -53 25 -25 53 vhcurveto
            362 hlineto
            53 26 51 callsubr
            return
          </CharString>
          <CharString index="8">
            217 callsubr
            -121 -83 callgsubr
            vlineto
            endchar
          </CharString>
          <CharString index="9">
            hlineto
            -26 -6 -60 callsubr
            6 6 26 vhcurveto
            return
          </CharString>
          <CharString index="10">
            hlineto
            14 11 3 6 7 hvcurveto
            -87 return
          </CharString>
          <CharString index="11">
            -81 callsubr
            -212 147 callgsubr
          </CharString>
          <CharString index="12">
            -13 callsubr
            253 -88 callgsubr
            return
          </CharString>
          <CharString index="13">
            -53 -25 -77 callsubr
            return
          </CharString>
          <CharString index="14">
            vlineto
            -102 callgsubr
            return
          </CharString>
          <CharString index="15">
            283 -90 callsubr
            return
          </CharString>
          <CharString index="16">
            -25 53 vhcurveto
            return
          </CharString>
          <CharString index="17">
            hlineto
            14 11 3 6 7 hvcurveto
            -87 210 callsubr
            return
          </CharString>
          <CharString index="18">
            -73 callgsubr
            -117 -93 callsubr
            return
          </CharString>
          <CharString index="19">
            6 25 hvcurveto
            return
          </CharString>
          <CharString index="20">
            -53 26 -91 callsubr
            return
          </CharString>
          <CharString index="21">
            114 callgsubr
            -329 -93 callsubr
            -7 callgsubr
            return
          </CharString>
          <CharString index="22">
            6 26 vhcurveto
            return
          </CharString>
          <CharString index="23">
            vlineto
            -70 callgsubr
            return
          </CharString>
          <CharString index="24">
            563 -42 callsubr
          </CharString>
          <CharString index="25">
            -251 -77 callgsubr
            return
          </CharString>
          <CharString index="26">
            -74 callgsubr
            -300 return
          </CharString>
          <CharString index="27">
            -64 callgsubr
            -234 -101 callsubr
            return
          </CharString>
          <CharString index="28">
            -6 -26 vhcurveto
            return
          </CharString>
          <CharString index="29">
            -269 -251 4 hlineto
            30 2 16 17 34 vvcurveto
            118 callsubr
            202 callgsubr
            -97 113 85 -84 callsubr
            241 hlineto
            26 6 255 callsubr
            -8 -8 -26 vhcurveto
            -157 -59 157 hlineto
            26 8 -8 -26 hvcurveto
            -116 42 callgsubr
            -241 -87 callgsubr
            85 -113 -97 -67 callgsubr
            372 -101 callgsubr
            138 205 -294 113 563 return
          </CharString>
          <CharString index="30">
            -25 -53 hvcurveto
            return
          </CharString>
          <CharString index="31">
            59 -133 -103 callgsubr
            return
          </CharString>
          <CharString index="32">
            -87 callsubr
            -18 callgsubr
            return
          </CharString>
          <CharString index="33">
            -59 -68 callgsubr
            return
          </CharString>
          <CharString index="34">
            hlineto
            26 35 callsubr
            return
          </CharString>
          <CharString index="35">
            -52 callgsubr
            270 return
          </CharString>
          <CharString index="36">
            -26 -8 28 callgsubr
            return
          </CharString>
          <CharString index="37">
            392 -47 callgsubr
            return
          </CharString>
          <CharString index="38">
            -317 hlineto
            -86 callsubr
            return
          </CharString>
          <CharString index="39">
            112 -83 callsubr
          </CharString>
          <CharString index="40">
            -67 callgsubr
            382 -43 callsubr
            166 -113 -25 callgsubr
            endchar
          </CharString>
          <CharString index="41">
            562 259 callgsubr
            hlineto
            -53 -25 -25 -53 hvcurveto
            -192 -31 callsubr
            return
          </CharString>
          <CharString index="42">
            -21 callgsubr
            323 -44 callgsubr
            62 -105 115 callsubr
            -207 131 callsubr
            376 158 callgsubr
            endchar
          </CharString>
          <CharString index="43">
            46 callsubr
            321 -199 96 callgsubr
            return
          </CharString>
          <CharString index="44">
            -102 callgsubr
            362 114 callsubr
            -231 -40 callsubr
            175 return
          </CharString>
          <CharString index="45">
            -14 -11 -3 -6 -7 hvcurveto
            87 return
          </CharString>
          <CharString index="46">
            22 -9 -18 9 -28 hhcurveto
            -232 94 callsubr
            232 hlineto
            28 18 9 22 9 hvcurveto
            return
          </CharString>
          <CharString index="47">
            -88 callsubr
            227 vlineto
            25 return
          </CharString>
          <CharString index="48">
            -53 -25 -25 -53 hvcurveto
            -39 callsubr
            return
          </CharString>
          <CharString index="49">
            vlineto
            -8 callsubr
            return
          </CharString>
          <CharString index="50">
            -97 callsubr
            112 return
          </CharString>
          <CharString index="51">
            -42 callgsubr
            -50 callgsubr
          </CharString>
          <CharString index="52">
            -106 callgsubr
            249 -426 91 callsubr
          </CharString>
          <CharString index="53">
            -5 -79 callsubr
            return
          </CharString>
          <CharString index="54">
            -26 vhcurveto
            -250 -60 callgsubr
            return
          </CharString>
          <CharString index="55">
            38 callsubr
            -169 -87 callgsubr
            46 -105 -56 -75 callgsubr
            284 -44 callgsubr
            113 -48 callgsubr
            -228 -87 callgsubr
            94 -84 callsubr
            169 -73 callsubr
            -46 104 56 -48 callgsubr
            -283 77 callgsubr
            -115 -75 callgsubr
            228 -73 callsubr
            return
          </CharString>
          <CharString index="56">
            26 6 -28 callgsubr
            return
          </CharString>
          <CharString index="57">
            -4 callgsubr
            211 -29 callgsubr
          </CharString>
          <CharString index="58">
            vlineto
            -19 callgsubr
            return
          </CharString>
          <CharString index="59">
            -53 -26 -77 callsubr
            return
          </CharString>
          <CharString index="60">
            hlineto
            -62 callsubr
            return
          </CharString>
          <CharString index="61">
            -15 callsubr
            149 return
          </CharString>
          <CharString index="62">
            -26 -5 5 callgsubr
            return
          </CharString>
          <CharString index="63">
            -103 callsubr
            205 callgsubr
            return
          </CharString>
          <CharString index="64">
            hlineto
            -12 callgsubr
            return
          </CharString>
          <CharString index="65">
            149 vlineto
            endchar
          </CharString>
          <CharString index="66">
            -251 -93 callsubr
            return
          </CharString>
          <CharString index="67">
            hlineto
            45 callgsubr
            return
          </CharString>
          <CharString index="68">
            -251 -31 callgsubr
            return
          </CharString>
          <CharString index="69">
            vlineto
            248 callgsubr
          </CharString>
          <CharString index="70">
            3 callgsubr
            -25 26 -53 vhcurveto
            return
          </CharString>
          <CharString index="71">
            -374 -69 callsubr
            return
          </CharString>
          <CharString index="72">
            vlineto
            -45 callsubr
            return
          </CharString>
          <CharString index="73">
            163 callgsubr
            -242 hlineto
            -26 -5 return
          </CharString>
          <CharString index="74">
            -258 -40 callsubr
            171 vlineto
            26 6 5 103 callgsubr
            -24 -53 hvcurveto
            -196 79 callsubr
            320 hlineto
            return
          </CharString>
          <CharString index="75">
            12 callgsubr
            -162 -330 vlineto
            -94 callsubr
            -136 -58 callsubr
            155 return
          </CharString>
          <CharString index="76">
            -93 callsubr
            415 -101 callgsubr
            407 return
          </CharString>
          <CharString index="77">
            535 -23 callsubr
          </CharString>
          <CharString index="78">
            192 callgsubr
            11 11 hvcurveto
            -11 13 return
          </CharString>
          <CharString index="79">
            26 8 8 26 vhcurveto
            return
          </CharString>
          <CharString index="80">
            vlineto
            -12 callsubr
            return
          </CharString>
          <CharString index="81">
            -24 callsubr
            endchar
          </CharString>
          <CharString index="82">
            -97 callgsubr
            138 308 vlineto
            53 25 25 53 hvcurveto
            160 117 callsubr
            -101 111 89 vlineto
            74 callgsubr
            return
          </CharString>
          <CharString index="83">
            -93 callsubr
            -24 callgsubr
            return
          </CharString>
          <CharString index="84">
            58 callsubr
            111 -83 callsubr
          </CharString>
          <CharString index="85">
            -69 callgsubr
            -229 -40 callsubr
            return
          </CharString>
          <CharString index="86">
            rlineto
            316 59 -375 -16 callsubr
            return
          </CharString>
          <CharString index="87">
            -48 callsubr
            -11 callsubr
            return
          </CharString>
          <CharString index="88">
            269 callgsubr
            -284 -59 218 -20 callgsubr
            -227 -64 callgsubr
            -249 -101 callsubr
            101 -113 -113 -93 callsubr
            381 95 callsubr
            return
          </CharString>
          <CharString index="89">
            vlineto
            214 callgsubr
            return
          </CharString>
          <CharString index="90">
            29 callsubr
            148 vlineto
            endchar
          </CharString>
          <CharString index="91">
            hlineto
            23 callgsubr
            return
          </CharString>
          <CharString index="92">
            45 callsubr
            563 return
          </CharString>
          <CharString index="93">
            -93 callsubr
            196 hlineto
            -110 -149 rlineto
            120 hlineto
            109 158 rlineto
            -90 141 callgsubr
            -224 42 callgsubr
            -199 -59 265 -101 callgsubr
            248 -49 callsubr
            -283 -47 callsubr
            vlineto
            endchar
          </CharString>
          <CharString index="94">
            -101 callsubr
            141 return
          </CharString>
          <CharString index="95">
            -26 -71 callgsubr
            return
          </CharString>
          <CharString index="96">
            108 callgsubr
            406 -101 callgsubr
            118 callsubr
            -214 -59 154 16 callsubr
            -110 -18 callsubr
            -281 -103 callgsubr
            return
          </CharString>
          <CharString index="97">
            vlineto
            53 25 106 callsubr
            return
          </CharString>
          <CharString index="98">
            -25 25 -53 vhcurveto
            return
          </CharString>
          <CharString index="99">
            -102 callgsubr
            -8 callgsubr
            return
          </CharString>
          <CharString index="100">
            5 26 vhcurveto
            return
          </CharString>
          <CharString index="101">
            45 117 -79 63 hhcurveto
            27 hlineto
            55 17 30 48 hvcurveto
            60 -89 -55 vlineto
            -19 -5 -5 -14 vhcurveto
            -45 -120 79 -62 hhcurveto
            -24 hlineto
            -54 -19 -29 -49 hvcurveto
            -60 90 return
          </CharString>
          <CharString index="102">
            -85 callsubr
            225 16 callsubr
            -106 99 118 vlineto
            53 return
          </CharString>
          <CharString index="103">
            26 6 0 callgsubr
            return
          </CharString>
          <CharString index="104">
            vlineto
            -2 callgsubr
            return
          </CharString>
          <CharString index="105">
            rmoveto
            113 100 -113 hlineto
            return
          </CharString>
          <CharString index="106">
            -212 67 callgsubr
            return
          </CharString>
          <CharString index="107">
            -53 25 -25 53 vhcurveto
            -17 callsubr
          </CharString>
          <CharString index="108">
            -26 53 vhcurveto
            return
          </CharString>
          <CharString index="109">
            -59 475 -234 vlineto
            24 callgsubr
            -392 148 callgsubr
            990 532 327 callsubr
            -96 111 84 vlineto
            25 7 -85 callsubr
            231 -20 callgsubr
            -177 -64 callgsubr
            -264 49 -112 -173 123 callgsubr
            25 -25 53 vhcurveto
            363 hlineto
            53 25 55 callsubr
          </CharString>
          <CharString index="110">
            hlineto
            -26 -6 -23 callgsubr
            return
          </CharString>
          <CharString index="111">
            237 callgsubr
            -15 -35 vvcurveto
            return
          </CharString>
          <CharString index="112">
            vlineto
            -10 callgsubr
          </CharString>
          <CharString index="113">
            rmoveto
            -110 -543 249 callgsubr
            361 158 callsubr
            -108 157 callsubr
            -239 -87 callgsubr
            return
          </CharString>
          <CharString index="114">
            rmoveto
            10 callgsubr
            194 hlineto
            24 10 -9 -25 hvcurveto
            -299 138 callgsubr
            141 -42 rmoveto
            468 -107 -31 -41 callgsubr
            -25 1 -57 -35 callsubr
            -317 -59 376 -44 callgsubr
            79 vlineto
            endchar
          </CharString>
          <CharString index="115">
            vlineto
            9 callsubr
            return
          </CharString>
          <CharString index="116">
            -34 16 -17 30 -1 4 callsubr
            return
          </CharString>
          <CharString index="117">
            27 -4 -17 12 -38 hhcurveto
            return
          </CharString>
          <CharString index="118">
            -59 562 -78 227 callgsubr
            236 callgsubr
            331 313 callgsubr
            -300 53 -114 -190 114 78 366 183 callsubr
            return
          </CharString>
          <CharString index="119">
            -56 callgsubr
            -642 -85 201 callgsubr
            256 -85 vlineto
            -643 -341 -3 callgsubr
            1443 426 rmoveto
            59 -1957 206 callsubr
            222 -263 hlineto
            -87 callsubr
            307 hlineto
            14 11 3 6 7 hvcurveto
            -87 -94 callgsubr
          </CharString>
          <CharString index="120">
            -71 callsubr
            -245 -98 callsubr
            return
          </CharString>
          <CharString index="121">
            hlineto
            -86 callgsubr
            return
          </CharString>
          <CharString index="122">
            -21 callsubr
            397 22 callsubr
            return
          </CharString>
          <CharString index="123">
            hlineto
            26 5 0 callgsubr
            return
          </CharString>
          <CharString index="124">
            -44 callgsubr
            82 -106 -71 -35 callsubr
            -187 hlineto
            10 callgsubr
            187 -73 callsubr
            -71 vlineto
            endchar
          </CharString>
          <CharString index="125">
            25 callgsubr
            114 vlineto
            44 -4 60 0 vhcurveto
            366 -248 rlineto
            -1 -3 -4 0 -4 hhcurveto
            return
          </CharString>
          <CharString index="126">
            563 17 callgsubr
          </CharString>
          <CharString index="127">
            30 callsubr
            150 59 -150 hlineto
            -26 -6 return
          </CharString>
          <CharString index="128">
            vlineto
            41 callsubr
            return
          </CharString>
          <CharString index="129">
            -29 callsubr
            18 -5 24 hhcurveto
            return
          </CharString>
          <CharString index="130">
            -34 callsubr
            6 26 hvcurveto
            360 307 vlineto
            return
          </CharString>
          <CharString index="131">
            rmoveto
            37 hlineto
            77 130 rlineto
            50 -114 vlineto
            return
          </CharString>
          <CharString index="132">
            vlineto
            86 callgsubr
            return
          </CharString>
          <CharString index="133">
            rmoveto
            112 -48 callgsubr
            -353 -1 callgsubr
            353 201 callsubr
            -264 -59 155 -171 -35 callsubr
            -229 -87 callgsubr
            442 -84 callsubr
            228 -73 callsubr
            -101 vlineto
            endchar
          </CharString>
          <CharString index="134">
            132 callsubr
            -5 return
          </CharString>
          <CharString index="135">
            33 callsubr
            134 callsubr
          </CharString>
          <CharString index="136">
            364 57 callgsubr
            return
          </CharString>
          <CharString index="137">
            vlineto
            91 callgsubr
            return
          </CharString>
          <CharString index="138">
            -53 24 -91 callsubr
            return
          </CharString>
          <CharString index="139">
            145 callsubr
            111 75 vlineto
            53 -24 26 -53 vhcurveto
            return
          </CharString>
          <CharString index="140">
            -65 callgsubr
            212 hlineto
            -143 -171 rlineto
            125 hlineto
            145 183 rlineto
            -124 111 return
          </CharString>
          <CharString index="141">
            -66 40 callgsubr
            292 -73 callsubr
            -63 -35 callsubr
            -270 59 -115 -196 115 78 335 -43 callsubr
            88 vlineto
            53 -26 24 -53 vhcurveto
            return
          </CharString>
          <CharString index="142">
            5 -28 callgsubr
            return
          </CharString>
          <CharString index="143">
            53 -26 26 -53 vhcurveto
            -346 -1 callgsubr
            return
          </CharString>
          <CharString index="144">
            195 callsubr
            304 -199 hlineto
            -69 callgsubr
            -513 426 rmoveto
            545 -137 -364 245 callgsubr
            398 86 callsubr
            104 59 -760 vlineto
            return
          </CharString>
          <CharString index="145">
            rmoveto
            -45 callsubr
            return
          </CharString>
          <CharString index="146">
            hlineto
            -48 callsubr
            return
          </CharString>
          <CharString index="147">
            -59 149 -485 67 callgsubr
            391 114 callsubr
            -260 -40 callsubr
            473 329 227 callsubr
            -137 -59 202 -43 callsubr
            201 127 vlineto
            endchar
          </CharString>
          <CharString index="148">
            53 -26 25 -53 vhcurveto
            return
          </CharString>
          <CharString index="149">
            -87 callsubr
            55 callgsubr
          </CharString>
          <CharString index="150">
            -321 30 callgsubr
            return
          </CharString>
          <CharString index="151">
            292 callgsubr
            -140 -145 rlineto
            102 hlineto
            return
          </CharString>
          <CharString index="152">
            -563 112 return
          </CharString>
          <CharString index="153">
            45 callgsubr
            168 -3 callsubr
            return
          </CharString>
          <CharString index="154">
            175 -53 callgsubr
            return
          </CharString>
          <CharString index="155">
            392 316 callsubr
            return
          </CharString>
          <CharString index="156">
            168 -107 callgsubr
            582 196 rmoveto
            return
          </CharString>
          <CharString index="157">
            rmoveto
            -1414 -59 475 -234 hlineto
            -26 -5 -5 -26 vhcurveto
            -201 172 -113 -392 65 callgsubr
          </CharString>
          <CharString index="158">
            -78 callgsubr
            118 -113 -106 -18 callsubr
            -231 -40 callsubr
            175 330 vlineto
            53 25 329 callsubr
            -25 25 -53 vhcurveto
            return
          </CharString>
          <CharString index="159">
            107 callsubr
            -215 -106 callsubr
            199 59 -264 39 callsubr
            131 callgsubr
            282 hlineto
            14 11 3 6 7 hvcurveto
            -87 141 callgsubr
            -227 vlineto
            -25 -6 217 callgsubr
            265 -101 callgsubr
            251 -49 callsubr
            -283 -47 callsubr
            vlineto
            endchar
          </CharString>
          <CharString index="160">
            rmoveto
            130 callgsubr
            137 25 callsubr
            200 hlineto
            -51 callsubr
            return
          </CharString>
          <CharString index="161">
            211 callgsubr
            56 0 vhcurveto
            371 return
          </CharString>
          <CharString index="162">
            51 callsubr
            560 hmoveto
            -261 -622 126 callgsubr
          </CharString>
          <CharString index="163">
            -59 560 -129 -379 hlineto
            -94 callsubr
            -191 40 callgsubr
            412 268 callsubr
            return
          </CharString>
          <CharString index="164">
            rmoveto
            100 callsubr
            -276 -87 callgsubr
            302 64 callgsubr
            -326 vlineto
            -53 26 -25 53 vhcurveto
            114 234 callsubr
            138 66 -138 270 callsubr
            -89 165 rlineto
            113 -101 callgsubr
            326 271 callsubr
          </CharString>
          <CharString index="165">
            hlineto
            18 12 4 11 7 hvcurveto
            -93 return
          </CharString>
          <CharString index="166">
            149 callgsubr
            -466 -101 callsubr
            return
          </CharString>
          <CharString index="167">
            -54 callgsubr
            endchar
          </CharString>
          <CharString index="168">
            632 875 394 rmoveto
            24 4 8 26 vhcurveto
            196 hlineto
            26 5 -8 -24 hvcurveto
            -101 vlineto
            -24 -8 -8 -17 vhcurveto
            -205 hlineto
            -19 -8 9 23 hvcurveto
            -243 270 rmoveto
            720 59 -1372 -59 541 -302 -68 hlineto
            -152 156 rlineto
            62 -60 -50 6 -79 hhcurveto
            -64 -62 22 hlineto
            46 46 -5 -50 50 hvcurveto
            132 -134 -276 -234 rlineto
            142 hlineto
            235 201 rlineto
            76 -201 111 201 return
          </CharString>
          <CharString index="169">
            -52 callsubr
            endchar
          </CharString>
          <CharString index="170">
            -348 65 callgsubr
          </CharString>
          <CharString index="171">
            -32 callgsubr
            376 22 callsubr
            return
          </CharString>
          <CharString index="172">
            -101 callsubr
            120 -84 callsubr
            197 59 -197 -87 callgsubr
            123 -84 callsubr
            return
          </CharString>
          <CharString index="173">
            vlineto
            -48 callsubr
            return
          </CharString>
          <CharString index="174">
            177 callsubr
            163 59 -781 146 callgsubr
            192 hlineto
            -110 -149 rlineto
            124 284 callsubr
            282 59 hlineto
            endchar
          </CharString>
          <CharString index="175">
            rmoveto
            -25 -6 272 callgsubr
            268 hlineto
            return
          </CharString>
          <CharString index="176">
            25 -53 vhcurveto
            -308 3 callsubr
            return
          </CharString>
          <CharString index="177">
            -426 112 563 return
          </CharString>
          <CharString index="178">
            173 callsubr
            -797 -59 528 -78 -319 308 callgsubr
            106 112 callsubr
            100 -43 callsubr
            166 -113 -154 -35 callsubr
            -252 295 callsubr
          </CharString>
          <CharString index="179">
            233 callsubr
            hlineto
            endchar
          </CharString>
          <CharString index="180">
            189 callgsubr
            138 308 vlineto
            53 25 25 53 hvcurveto
            160 117 callsubr
            return
          </CharString>
          <CharString index="181">
            rmoveto
            174 callsubr
            167 253 callgsubr
            -198 238 callgsubr
            return
          </CharString>
          <CharString index="182">
            hlineto
            80 callgsubr
            return
          </CharString>
          <CharString index="183">
            356 86 callsubr
            return
          </CharString>
          <CharString index="184">
            360 1080 7 callgsubr
            -1100 -59 506 hlineto
            -51 callsubr
            -155 -27 callsubr
            -263 87 -113 -354 hlineto
            -87 callsubr
            356 95 callsubr
            133 -111 -121 vlineto
            -25 -7 -79 callsubr
            -224 -101 callsubr
            196 329 vlineto
            175 callgsubr
            40 196 vlineto
            26 4 -8 -24 hvcurveto
            return
          </CharString>
          <CharString index="185">
            vlineto
            -42 callgsubr
            83 callsubr
            -159 -11 callgsubr
          </CharString>
          <CharString index="186">
            vlineto
            31 callsubr
            return
          </CharString>
          <CharString index="187">
            -29 callsubr
            19 -5 24 hhcurveto
            return
          </CharString>
          <CharString index="188">
            563 149 hlineto
            endchar
          </CharString>
          <CharString index="189">
            323 callgsubr
            30 -2 4 callsubr
            -176 -67 callgsubr
            679 -101 callgsubr
            329 vlineto
            return
          </CharString>
          <CharString index="190">
            -62 8 callsubr
            return
          </CharString>
          <CharString index="191">
            rmoveto
            258 callgsubr
            360 307 -358 vlineto
            -71 callsubr
            177 307 201 callgsubr
            163 59 -823 -59 131 -372 vlineto
            33 callsubr
            385 -47 callgsubr
            260 59 hlineto
            endchar
          </CharString>
          <CharString index="192">
            -97 callsubr
            111 return
          </CharString>
          <CharString index="193">
            95 callsubr
            407 return
          </CharString>
          <CharString index="194">
            109 callgsubr
            579 -426 91 callsubr
          </CharString>
          <CharString index="195">
            hlineto
            -81 callsubr
            -1 callsubr
            535 hlineto
            return
          </CharString>
          <CharString index="196">
            rmoveto
            95 callgsubr
            return
          </CharString>
          <CharString index="197">
            rmoveto
            102 hlineto
            164 145 292 callsubr
            return
          </CharString>
          <CharString index="198">
            113 81 callsubr
          </CharString>
          <CharString index="199">
            -41 callsubr
            385 56 callgsubr
            563 148 vlineto
            endchar
          </CharString>
          <CharString index="200">
            -7 -5 -3 -9 -15 vvcurveto
            return
          </CharString>
          <CharString index="201">
            hlineto
            -22 callgsubr
            return
          </CharString>
          <CharString index="202">
            hlineto
            132 callgsubr
            return
          </CharString>
          <CharString index="203">
            -26 589 543 -36 callgsubr
            return
          </CharString>
          <CharString index="204">
            -26 -5 -23 callgsubr
            33 vlineto
            26 5 257 callgsubr
            return
          </CharString>
          <CharString index="205">
            vlineto
            -53 25 -25 53 vhcurveto
            362 hlineto
            53 26 55 callsubr
          </CharString>
          <CharString index="206">
            hlineto
            42 callsubr
          </CharString>
          <CharString index="207">
            -26 -6 5 callgsubr
            return
          </CharString>
          <CharString index="208">
            hlineto
            12 166 callsubr
            -3 313 callsubr
            -6 6 25 hvcurveto
            305 vlineto
            25 6 250 callgsubr
            249 279 callgsubr
          </CharString>
          <CharString index="209">
            317 -97 callsubr
            return
          </CharString>
          <CharString index="210">
            66 callsubr
            -195 vlineto
            -24 -8 -9 342 callsubr
            171 25 callsubr
            229 59 -287 hlineto
            -53 -24 -24 -53 hvcurveto
            -196 79 callsubr
            302 hlineto
            12 166 callsubr
            -45 -67 callgsubr
            return
          </CharString>
          <CharString index="211">
            426 rmoveto
            137 return
          </CharString>
          <CharString index="212">
            hlineto
            -32 -13 -14 -25 -5 hvcurveto
            -4 hlineto
            10 callsubr
            -310 hlineto
            -94 callsubr
            return
          </CharString>
          <CharString index="213">
            -78 callgsubr
            147 -45 callgsubr
            215 hlineto
            return
          </CharString>
          <CharString index="214">
            -392 vlineto
            -71 callsubr
            return
          </CharString>
          <CharString index="215">
            -45 callsubr
            -201 return
          </CharString>
          <CharString index="216">
            vlineto
            28 callsubr
          </CharString>
          <CharString index="217">
            -395 -107 callgsubr
            587 196 rmoveto
            return
          </CharString>
          <CharString index="218">
            rmoveto
            46 -23 22 -45 vhcurveto
            -187 hlineto
            -45 -23 -22 -46 hvcurveto
            -38 vlineto
            -47 23 -21 45 vhcurveto
            187 hlineto
            45 23 21 47 hvcurveto
            -73 9 rmoveto
            -23 -3 5 callgsubr
            -119 hlineto
            -25 -4 5 23 hvcurveto
            20 vlineto
            23 4 5 25 vhcurveto
            119 hlineto
            26 3 -5 -23 hvcurveto
            return
          </CharString>
          <CharString index="219">
            hlineto
            -90 -165 rlineto
            110 hlineto
            68 138 66 -138 270 callsubr
            -89 165 rlineto
            return
          </CharString>
          <CharString index="220">
            13 rmoveto
            -23 -3 -5 -23 vhcurveto
            -142 hlineto
            -23 -3 5 23 hvcurveto
            179 vlineto
            23 3 4 23 vhcurveto
            142 hlineto
            23 3 -4 -23 hvcurveto
            return
          </CharString>
          <CharString index="221">
            -43 callsubr
            118 -113 -106 -18 callsubr
            return
          </CharString>
          <CharString index="222">
            -51 -35 callsubr
            return
          </CharString>
          <CharString index="223">
            308 223 240 rmoveto
            265 -101 callgsubr
            245 462 59 -1048 -59 475 -233 -18 callsubr
            -201 171 -113 -392 hlineto
            31 callsubr
            446 59 -378 -40 callsubr
            return
          </CharString>
          <CharString index="224">
            -49 callsubr
            -341 39 callsubr
            return
          </CharString>
          <CharString index="225">
            134 -49 callsubr
            return
          </CharString>
          <CharString index="226">
            -299 hlineto
            -94 callsubr
            return
          </CharString>
          <CharString index="227">
            127 callgsubr
            -276 208 callsubr
            26 6 -6 -25 hvcurveto
            return
          </CharString>
          <CharString index="228">
            108 callgsubr
            403 118 callgsubr
            -146 78 hlineto
            endchar
          </CharString>
          <CharString index="229">
            hlineto
            18 11 4 10 7 hvcurveto
            return
          </CharString>
          <CharString index="230">
            rmoveto
            204 callgsubr
            220 hlineto
            -123 -175 rlineto
            119 hlineto
            138 201 rlineto
            26 33 hlineto
            endchar
          </CharString>
          <CharString index="231">
            112 19 callsubr
          </CharString>
          <CharString index="232">
            112 81 callsubr
          </CharString>
          <CharString index="233">
            vlineto
            53 25 24 53 hvcurveto
            return
          </CharString>
          <CharString index="234">
            -59 131 -226 hlineto
            200 callgsubr
            -1 265 callgsubr
            return
          </CharString>
          <CharString index="235">
            146 -324 vlineto
            -62 callsubr
            622 vlineto
            -72 callgsubr
            return
          </CharString>
          <CharString index="236">
            622 239 callgsubr
            return
          </CharString>
          <CharString index="237">
            -563 -68 callsubr
          </CharString>
          <CharString index="238">
            -87 callgsubr
            129 return
          </CharString>
          <CharString index="239">
            -234 hlineto
            -26 return
          </CharString>
          <CharString index="240">
            13 18 -5 24 hhcurveto
            -17 callsubr
          </CharString>
          <CharString index="241">
            563 150 vlineto
            endchar
          </CharString>
          <CharString index="242">
            -101 callgsubr
            132 -49 callsubr
            -214 -59 154 -73 callsubr
            -108 -35 callsubr
            -281 295 callsubr
          </CharString>
          <CharString index="243">
            -392 vlineto
            -95 callgsubr
            return
          </CharString>
          <CharString index="244">
            -389 vlineto
            -71 callsubr
            -215 -87 callgsubr
            224 199 callsubr
            return
          </CharString>
          <CharString index="245">
            hlineto
            258 callgsubr
            return
          </CharString>
          <CharString index="246">
            578 215 callgsubr
          </CharString>
          <CharString index="247">
            rmoveto
            -509 -59 384 hlineto
            -395 -504 rlineto
            -59 510 59 -385 vlineto
            395 504 rlineto
            endchar
          </CharString>
          <CharString index="248">
            -34 callgsubr
            464 79 callgsubr
          </CharString>
          <CharString index="249">
            426 173 callsubr
            return
          </CharString>
          <CharString index="250">
            -87 callsubr
            -15 callgsubr
            385 -47 callgsubr
            return
          </CharString>
          <CharString index="251">
            -44 callgsubr
            185 -48 callgsubr
            return
          </CharString>
          <CharString index="252">
            26 callgsubr
            -63 return
          </CharString>
          <CharString index="253">
            -101 callgsubr
            118 -112 -106 -64 callgsubr
            -231 -101 callsubr
            175 330 vlineto
            53 24 329 callsubr
            -24 25 -53 vhcurveto
            560 hmoveto
            return
          </CharString>
          <CharString index="254">
            -5 24 170 callsubr
            return
          </CharString>
          <CharString index="255">
            122 callsubr
            -92 112 return
          </CharString>
          <CharString index="256">
            hlineto
            191 callsubr
            return
          </CharString>
          <CharString index="257">
            204 vlineto
            25 return
          </CharString>
          <CharString index="258">
            -10 195 622 6 callsubr
            return
          </CharString>
          <CharString index="259">
            189 callsubr
            148 vlineto
            endchar
          </CharString>
          <CharString index="260">
            80 callsubr
            363 -4 callgsubr
            return
          </CharString>
          <CharString index="261">
            rlineto
            299 59 -358 -16 callsubr
            379 hlineto
            return
          </CharString>
          <CharString index="262">
            -94 callsubr
            -237 39 callgsubr
            return
          </CharString>
          <CharString index="263">
            rmoveto
            40 hlineto
            80 196 rlineto
            62 -120 vlineto
            return
          </CharString>
          <CharString index="264">
            -532 -35 callsubr
            return
          </CharString>
          <CharString index="265">
            -44 callgsubr
            543 return
          </CharString>
          <CharString index="266">
            -7 -26 vhcurveto
            -237 hlineto
            -26 return
          </CharString>
          <CharString index="267">
            267 callsubr
            -51 vlineto
            -25 -7 300 callgsubr
            26 -25 53 vhcurveto
            532 hlineto
            17 12 4 9 7 hvcurveto
            -91 -68 callsubr
          </CharString>
          <CharString index="268">
            357 -50 callsubr
          </CharString>
          <CharString index="269">
            217 callsubr
            -75 112 63 30 callsubr
            return
          </CharString>
          <CharString index="270">
            -99 callgsubr
            231 -20 callgsubr
            -163 -330 vlineto
            -94 callsubr
            -135 -58 callsubr
            154 return
          </CharString>
          <CharString index="271">
            -59 131 -372 -75 callgsubr
            212 hlineto
            -143 -171 rlineto
            125 hlineto
            return
          </CharString>
          <CharString index="272" raw="1">
            f743c60a f721f791 07c00b 
          </CharString>
          <CharString index="273">
            10 1 2 8 hvcurveto
            return
          </CharString>
          <CharString index="274">
            292 callgsubr
            164 -145 rlineto
            102 hlineto
            endchar
          </CharString>
          <CharString index="275">
            -120 248 callsubr
            197 59 -128 hlineto
            172 callgsubr
            165 hlineto
            23 7 -8 -20 12 hvcurveto
            106 -183 rlineto
            return
          </CharString>
          <CharString index="276">
            158 -56 callgsubr
            return
          </CharString>
          <CharString index="277">
            hhcurveto
            535 hlineto
            17 12 4 9 7 hvcurveto
            -91 112 563 return
          </CharString>
          <CharString index="278">
            173 callgsubr
            110 hlineto
            -2 callgsubr
            return
          </CharString>
          <CharString index="279">
            269 callsubr
            87 vlineto
            24 8 9 26 vhcurveto
            return
          </CharString>
          <CharString index="280">
            rmoveto
            191 callgsubr
            return
          </CharString>
          <CharString index="281">
            -26 -6 6 26 hvcurveto
            return
          </CharString>
          <CharString index="282">
            -59 403 60 callgsubr
            -309 -199 hlineto
            -53 25 1 callsubr
            437 hlineto
            -157 -149 rlineto
            138 hlineto
            return
          </CharString>
          <CharString index="283">
            -73 callsubr
            -395 return
          </CharString>
          <CharString index="284">
            rmoveto
            -62 callsubr
            return
          </CharString>
          <CharString index="285">
            hlineto
            46 123 rlineto
            323 hlineto
            return
          </CharString>
          <CharString index="286">
            485 rmoveto
            -284 hlineto
            -32 -13 -14 -25 -5 hvcurveto
            -4 hlineto
            10 callsubr
            return
          </CharString>
          <CharString index="287">
            43 15 4 26 vhcurveto
            49 61 -79 hlineto
            -55 -26 171 callgsubr
            -35 46 -49 68 rcurveline
            -115 hlineto
            77 -101 return
          </CharString>
          <CharString index="288">
            277 callsubr
            -164 hlineto
            95 callgsubr
            89 return
          </CharString>
          <CharString index="289">
            hlineto
            25 17 5 11 11 hvcurveto
            -11 133 callsubr
          </CharString>
          <CharString index="290">
            -101 callgsubr
            97 235 callsubr
            return
          </CharString>
          <CharString index="291">
            hlineto
            155 callsubr
            return
          </CharString>
          <CharString index="292">
            7 0 6 -1 6 vhcurveto
            return
          </CharString>
          <CharString index="293">
            -61 callsubr
            -31 107 669 return
          </CharString>
          <CharString index="294">
            hlineto
            -42 callgsubr
            -96 callgsubr
            return
          </CharString>
          <CharString index="295">
            196 634 -196 hlineto
            236 -185 rmoveto
            196 185 -196 hlineto
            return
          </CharString>
          <CharString index="296">
            -102 callgsubr
            184 callgsubr
            return
          </CharString>
          <CharString index="297">
            -25 -10 -9 -24 vhcurveto
            return
          </CharString>
          <CharString index="298">
            -53 -24 -77 callsubr
            return
          </CharString>
          <CharString index="299">
            -42 callgsubr
            131 callgsubr
            283 85 callsubr
            -70 callsubr
            return
          </CharString>
          <CharString index="300" raw="1">
            f78f07c0 0b  
          </CharString>
          <CharString index="301">
            25 callgsubr
            120 -84 callsubr
            197 59 -197 -87 callgsubr
            123 -84 callsubr
            return
          </CharString>
          <CharString index="302">
            221 220 callsubr
            return
          </CharString>
          <CharString index="303">
            hlineto
            -170 200 292 callsubr
            85 -101 38 -46 37 -32 25 -21 rlinecurve
            return
          </CharString>
          <CharString index="304">
            335 callgsubr
            -805 -59 545 -78 -329 return
          </CharString>
          <CharString index="305">
            hlineto
            -47 -15 -21 -34 hvcurveto
            -5 hlineto
            34 -15 21 -47 vhcurveto
            return
          </CharString>
          <CharString index="306">
            -105 callsubr
            199 59 return
          </CharString>
          <CharString index="307">
            -124 -93 callsubr
            return
          </CharString>
          <CharString index="308">
            -44 callgsubr
            241 return
          </CharString>
          <CharString index="309">
            hlineto
            27 callgsubr
            return
          </CharString>
          <CharString index="310" raw="1">
            f7af1da4 0b  
          </CharString>
          <CharString index="311">
            -6 -26 hvcurveto
            -63 return
          </CharString>
          <CharString index="312">
            59 rmoveto
            10 callgsubr
            194 hlineto
            24 10 -9 -25 hvcurveto
            -299 138 callgsubr
            return
          </CharString>
          <CharString index="313">
            -59 130 -407 vlineto
            143 callsubr
            return
          </CharString>
          <CharString index="314">
            -43 callsubr
            152 vlineto
            53 -26 69 callsubr
            53 25 callsubr
            endchar
          </CharString>
          <CharString index="315">
            -103 callgsubr
            276 hlineto
            return
          </CharString>
          <CharString index="316">
            rmoveto
            563 -109 -622 425 59 vlineto
            endchar
          </CharString>
          <CharString index="317">
            112 -70 callsubr
            return
          </CharString>
          <CharString index="318">
            -26 vhcurveto
            -227 -101 callsubr
            return
          </CharString>
          <CharString index="319">
            11 38 callsubr
            return
          </CharString>
          <CharString index="320">
            -77 -93 callsubr
            return
          </CharString>
          <CharString index="321">
            -700 -189 7 callgsubr
            -27 46 -30 42 -57 63 -43 49 rcurveline
            -121 hlineto
            139 -132 rlineto
            64 -60 30 -18 0 vvcurveto
            return
          </CharString>
          <CharString index="322">
            -396 210 callgsubr
            return
          </CharString>
          <CharString index="323">
            213 callgsubr
            -346 426 rmoveto
            return
          </CharString>
          <CharString index="324">
            hlineto
            -53 -25 19 callgsubr
            return
          </CharString>
          <CharString index="325">
            -700 14 822 rmoveto
            -177 hlineto
            -94 callsubr
            -145 112 133 -3 callsubr
            111 hlineto
            return
          </CharString>
          <CharString index="326">
            -48 callsubr
            83 callsubr
            -149 -67 callgsubr
            return
          </CharString>
          <CharString index="327">
            137 rmoveto
            46 callsubr
            return
          </CharString>
          <CharString index="328">
            281 callsubr
            -366 249 rlineto
            316 59 return
          </CharString>
          <CharString index="329">
            146 -302 vlineto
            -62 callsubr
            600 vlineto
            -72 callgsubr
            return
          </CharString>
          <CharString index="330">
            -59 537 -78 -329 39 callsubr
            -242 -75 callgsubr
            363 237 callsubr
            return
          </CharString>
          <CharString index="331">
            71 -113 -58 285 callsubr
            25 5 6 26 vhcurveto
            endchar
          </CharString>
          <CharString index="332">
            rmoveto
            -91 139 91 vlineto
            129 hmoveto
            -91 139 91 vlineto
            endchar
          </CharString>
          <CharString index="333">
            -56 -48 vvcurveto
            -26 108 590 return
          </CharString>
          <CharString index="334">
            -189 -64 callgsubr
            return
          </CharString>
          <CharString index="335">
            119 callsubr
            -238 40 callgsubr
            222 hlineto
            -123 -149 rlineto
            123 hlineto
            return
          </CharString>
          <CharString index="336">
            216 callgsubr
            -6 6 25 hvcurveto
            227 vlineto
            24 6 174 callgsubr
            return
          </CharString>
          <CharString index="337">
            137 18 callsubr
            return
          </CharString>
          <CharString index="338">
            vlineto
            50 -23 28 -56 vhcurveto
            -318 hlineto
            -55 -23 -28 -50 hvcurveto
            -88 vlineto
            -28 3 -20 11 -10 vhcurveto
            -147 hlineto
            endchar
          </CharString>
          <CharString index="339">
            -48 rmoveto
            -107 -485 107 348 hlineto
            49 21 26 46 vhcurveto
            113 62 -95 hlineto
            -48 -27 -26 -36 -10 hvcurveto
            endchar
          </CharString>
          <CharString index="340">
            -27 callgsubr
            -39 -75 callgsubr
            202 54 return
          </CharString>
          <CharString index="341">
            hlineto
            -90 -165 270 callsubr
            67 return
          </CharString>
          <CharString index="342">
            vlineto
            185 callsubr
            return
          </CharString>
          <CharString index="343">
            -15 -3 -9 -6 -21 hhcurveto
            return
          </CharString>
          <CharString index="344">
            hlineto
            175 callgsubr
            return
          </CharString>
          <CharString index="345">
            390 7 callgsubr
            return
          </CharString>
          <CharString index="346">
            173 rmoveto
            -116 vlineto
            -26 -8 -8 -26 vhcurveto
            -253 -40 callsubr
            88 25 callsubr
            return
          </CharString>
          <CharString index="347">
            -5 24 153 callgsubr
          </CharString>
          <CharString index="348">
            220 callgsubr
            -350 213 callgsubr
            return
          </CharString>
          <CharString index="349">
            -35 callgsubr
            624 hmoveto
            59 return
          </CharString>
          <CharString index="350">
            65 636 426 rmoveto
            197 callsubr
            vlineto
            -53 -26 -25 -53 hvcurveto
            return
          </CharString>
          <CharString index="351">
            vlineto
            26 35 callsubr
            -132 186 callgsubr
            return
          </CharString>
          <CharString index="352">
            -49 callsubr
            253 callsubr
            return
          </CharString>
          <CharString index="353">
            -78 -329 hlineto
            -94 callsubr
            994 215 rmoveto
            return
          </CharString>
          <CharString index="354">
            vlineto
            323 callgsubr
            30 -2 4 callsubr
            return
          </CharString>
          <CharString index="355">
            vlineto
            -53 22 -22 53 vhcurveto
            return
          </CharString>
          <CharString index="356">
            vhcurveto
            -4 vlineto
            -30 return
          </CharString>
          <CharString index="357">
            169 callsubr
            -642 return
          </CharString>
          <CharString index="358">
            76 callsubr
            231 -563 124 callsubr
          </CharString>
          <CharString index="359">
            -53 -22 -22 -53 hvcurveto
            -120 248 callsubr
            return
          </CharString>
          <CharString index="360">
            -343 hlineto
            -94 callsubr
            return
          </CharString>
          <CharString index="361">
            -6 159 callsubr
            return
          </CharString>
          <CharString index="362">
            -28 callgsubr
            -121 vlineto
            -26 return
          </CharString>
          <CharString index="363">
            rmoveto
            -138 -91 138 hlineto
            return
          </CharString>
          <CharString index="364">
            -87 callgsubr
            92 return
          </CharString>
          <CharString index="365">
            -343 hlineto
            -53 return
          </CharString>
          <CharString index="366">
            -10 callsubr
            168 callgsubr
            return
          </CharString>
          <CharString index="367">
            hlineto
            -94 callsubr
            -242 40 callgsubr
            363 237 callsubr
            return
          </CharString>
          <CharString index="368">
            -67 callgsubr
            679 118 callgsubr
            return
          </CharString>
          <CharString index="369">
            24 5 5 25 vhcurveto
            34 59 -34 hlineto
            -25 -5 6 24 hvcurveto
            31 vlineto
            24 5 6 25 vhcurveto
            return
          </CharString>
          <CharString index="370">
            vlineto
            48 -19 30 -57 vhcurveto
            -261 70 hlineto
            15 -3 9 -7 5 vhcurveto
            460 hlineto
            endchar
          </CharString>
          <CharString index="371">
            -150 276 callsubr
            174 162 rlineto
            return
          </CharString>
          <CharString index="372">
            -148 276 callsubr
            173 162 rlineto
            return
          </CharString>
          <CharString index="373">
            313 hlineto
            14 11 3 6 7 hvcurveto
            return
          </CharString>
          <CharString index="374">
            hlineto
            291 callgsubr
            return
          </CharString>
          <CharString index="375">
            hlineto
            53 24 26 53 hvcurveto
            return
          </CharString>
          <CharString index="376">
            -26 -8 9 24 hvcurveto
            return
          </CharString>
          <CharString index="377">
            rlineto
            111 hlineto
            return
          </CharString>
          <CharString index="378">
            -49 callsubr
            -146 78 hlineto
            endchar
          </CharString>
          <CharString index="379">
            -40 callsubr
            215 vlineto
            24 6 174 callgsubr
            -384 return
          </CharString>
          <CharString index="380">
            391 699 rmoveto
            -413 -835 rlineto
            102 hlineto
            414 835 rlineto
            endchar
          </CharString>
          <CharString index="381">
            rmoveto
            -14 -11 -3 -6 -7 hvcurveto
            return
          </CharString>
          <CharString index="382">
            hlineto
            -94 callsubr
            -68 return
          </CharString>
          <CharString index="383">
            -162 rlineto
            90 hlineto
            return
          </CharString>
          <CharString index="384">
            -35 284 callgsubr
            return
          </CharString>
          <CharString index="385" raw="1">
            f7e80af7 0407b887 c68b1e0b 
          </CharString>
          <CharString index="386">
            -212 hlineto
            -87 callsubr
            return
          </CharString>
          <CharString index="387">
            363 -43 callsubr
            return
          </CharString>
          <CharString index="388">
            -250 hlineto
            290 callsubr
            return
          </CharString>
          <CharString index="389">
            vlineto
            -48 21 -30 56 vhcurveto
            return
          </CharString>
          <CharString index="390">
            0 callgsubr
            -106 return
          </CharString>
          <CharString index="391">
            hlineto
            109 158 rlineto
            -90 210 callsubr
            return
          </CharString>
          <CharString index="392">
            -35 callsubr
            -258 -87 callgsubr
            124 vlineto
            return
          </CharString>
          <CharString index="393">
            -178 89 callsubr
            return
          </CharString>
          <CharString index="394">
            rmoveto
            -552 190 callgsubr
            hlineto
            endchar
          </CharString>
          <CharString index="395">
            hlineto
            -128 154 128 154 rlineto
            return
          </CharString>
          <CharString index="396">
            -20 -22 -44 hvcurveto
            -205 vlineto
            -45 20 -21 return
          </CharString>
          <CharString index="397">
            -89 8 -47 0 vhcurveto
            return
          </CharString>
          <CharString index="398">
            vlineto
            -34 16 -17 return
          </CharString>
          <CharString index="399">
            rlineto
            -126 hlineto
            return
          </CharString>
          <CharString index="400">
            215 callsubr
            -6 7 24 hvcurveto
            return
          </CharString>
          <CharString index="401">
            322 callsubr
            -26 -25 -53 hvcurveto
            return
          </CharString>
          <CharString index="402">
            -87 callgsubr
            302 -105 callsubr
            endchar
          </CharString>
          <CharString index="403">
            hlineto
            56 21 30 48 hvcurveto
            466 vlineto
            48 -21 30 -56 vhcurveto
            endchar
          </CharString>
          <CharString index="404">
            rmoveto
            -91 139 91 vlineto
            -407 hmoveto
            -91 139 91 vlineto
            endchar
          </CharString>
          <CharString index="405">
            hlineto
            26 6 -6 return
          </CharString>
          <CharString index="406">
            171 7 callgsubr
            -39 hlineto
            -81 -196 rlineto
            -62 120 vlineto
            return
          </CharString>
          <CharString index="407">
            vhcurveto
            202 -73 callsubr
            return
          </CharString>
          <CharString index="408">
            -113 303 callgsubr
            return
          </CharString>
          <CharString index="409">
            rmoveto
            -125 -98 125 hlineto
            return
          </CharString>
          <CharString index="410">
            120 120 -120 hlineto
            return
          </CharString>
          <CharString index="411" raw="1">
            1efb9106 71850b  
          </CharString>
          <CharString index="412">
            -32 callgsubr
            302 hlineto
            return
          </CharString>
          <CharString index="413">
            hlineto
            -71 callsubr
            -510 -40 callsubr
            return
          </CharString>
          <CharString index="414">
            hlineto
            -94 callsubr
            -201 vlineto
            -379 357 rlineto
            return
          </CharString>
          <CharString index="415">
            -105 callsubr
            276 -20 callgsubr
            return
          </CharString>
          <CharString index="416">
            -35 callsubr
            -240 3 callsubr
            return
          </CharString>
          <CharString index="417" raw="1">
            fb890671 0b  
          </CharString>
          <CharString index="418">
            0 callgsubr
            -155 318 callgsubr
            return
          </CharString>
          <CharString index="419">
            -87 callgsubr
            33 -84 callsubr
            return
          </CharString>
          <CharString index="420">
            -93 callsubr
            286 59 -220 hlineto
            -26 return
          </CharString>
          <CharString index="421">
            vlineto
            34 -16 17 -29 3 vhcurveto
            29 2 16 19 34 vvcurveto
            return
          </CharString>
          <CharString index="422">
            168 rmoveto
            214 callgsubr
            return
          </CharString>
          <CharString index="423">
            -47 callgsubr
            222 return
          </CharString>
          <CharString index="424">
            426 325 callsubr
            return
          </CharString>
          <CharString index="425">
            -124 -67 callgsubr
            return
          </CharString>
          <CharString index="426">
            590 17 callgsubr
          </CharString>
          <CharString index="427" raw="1">
            f7e40aa4 0b  
          </CharString>
          <CharString index="428">
            -57 callsubr
            563 return
          </CharString>
          <CharString index="429">
            175 hlineto
            -19 callgsubr
            -362 hlineto
            -53 return
          </CharString>
          <CharString index="430">
            9 728 7 callgsubr
            -748 -59 748 hlineto
            return
          </CharString>
          <CharString index="431">
            hlineto
            85 -101 45 -54 43 -36 25 -19 rlinecurve
            endchar
          </CharString>
          <CharString index="432">
            rmoveto
            137 144 59 return
          </CharString>
          <CharString index="433">
            hlineto
            -53 -22 -22 -53 hvcurveto
            return
          </CharString>
          <CharString index="434">
            rmoveto
            -94 callsubr
            return
          </CharString>
          <CharString index="435">
            331 callsubr
            7 -6 -25 hvcurveto
            return
          </CharString>
          <CharString index="436">
            -78 callgsubr
            201 vlineto
            53 return
          </CharString>
          <CharString index="437">
            hlineto
            -32 -12 -14 -25 -5 hvcurveto
            return
          </CharString>
          <CharString index="438">
            -85 callsubr
            216 hlineto
            26 return
          </CharString>
          <CharString index="439">
            39 callsubr
            -68 return
          </CharString>
          <CharString index="440">
            -56 -21 -30 -48 hvcurveto
            return
          </CharString>
          <CharString index="441">
            -28 -11 -10 -28 vhcurveto
            return
          </CharString>
          <CharString index="442">
            vhcurveto
            -238 hlineto
            -26 return
          </CharString>
          <CharString index="443" raw="1">
            f7c807c0 0b  
          </CharString>
          <CharString index="444">
            25 26 -18 19 -26 -25 -19 -19 -26 vhcurveto
            return
          </CharString>
          <CharString index="445">
            164 7 callgsubr
            -27 callgsubr
            return
          </CharString>
          <CharString index="446">
            vlineto
            -71 callsubr
            -246 hlineto
            -26 return
          </CharString>
          <CharString index="447" raw="1">
            f77ef71d a41d0b  
          </CharString>
          <CharString index="448">
            -75 callgsubr
            293 callgsubr
            return
          </CharString>
          <CharString index="449">
            -26 vhcurveto
            -240 -40 callsubr
            return
          </CharString>
          <CharString index="450">
            308 129 hlineto
            endchar
          </CharString>
        <CharString name=".notdef">
          51 177 hmoveto
          397 701 -397 hlineto
          58 -54 rmoveto
          281 -593 -281 hlineto
          endchar
        </CharString>
        <CharString name="A">
          -6 207 182 -13 callgsubr
        </CharString>
        <CharString name="AE">
          326 286 201 rmoveto
          242 344 rlineto
          -344 vlineto
          111 -142 rmoveto
          230 286 59 -286 215 318 59 -487 vlineto
          -443 -622 rlineto
          118 hlineto
          100 142 rlineto
          283 -142 442 59 hlineto
          endchar
        </CharString>
        <CharString name="Aacute">
          -7 571 815 44 callsubr
          -200 -488 -13 callgsubr
        </CharString>
        <CharString name="Abreve">
          -7 476 669 70 callgsubr
          -10 -487 -13 callgsubr
        </CharString>
        <CharString name="Acircumflex">
          -7 346 768 rmoveto
          41 callgsubr
          -169 -146 rlineto
          118 hlineto
          -30 -487 -13 callgsubr
        </CharString>
        <CharString name="Adieresis">
          -7 551 760 256 callsubr
          -268 91 256 callsubr
          -76 -487 161 callgsubr
        </CharString>
        <CharString name="Agrave">
          -7 383 670 rmoveto
          -139 144 292 callsubr
          164 -144 rlineto
          -75 -488 161 callgsubr
        </CharString>
        <CharString name="Amacron">
          -7 535 728 256 callgsubr
          -328 -488 -13 callgsubr
        </CharString>
        <CharString name="Aogonek">
          -7 207 182 102 callgsubr
          30 -360 89 callsubr
          89 5 hlineto
          -241 622 rlineto
          -151 hlineto
          -240 -622 rlineto
          108 178 callsubr
          46 -123 rlineto
          -35 -77 vlineto
          72 callsubr
        </CharString>
        <CharString name="Aring">
          -7 258 766 51 callgsubr
          -46 -487 -13 callgsubr
        </CharString>
        <CharString name="Atilde">
          -7 230 725 rmoveto
          15 5 8 13 vhcurveto
          -6 callsubr
          vlineto
          -23 -487 -13 callgsubr
        </CharString>
        <CharString name="B">
          -1 95 7 callgsubr
          -622 440 vlineto
          -34 callgsubr
          178 vlineto
          34 -17 16 -29 3 vhcurveto
          29 2 17 20 34 vvcurveto
          177 -48 callgsubr
          -28 -534 rmoveto
          -24 -7 5 callgsubr
          -269 223 271 -73 callsubr
          121 vmoveto
          -45 callsubr
          -271 222 271 -73 callsubr
          endchar
        </CharString>
        <CharString name="C">
          -47 595 410 -6 callgsubr
        </CharString>
        <CharString name="CR">
          -426 endchar
        </CharString>
        <CharString name="Cacute">
          -49 551 815 44 callsubr
          207 -260 -6 callgsubr
        </CharString>
        <CharString name="Ccaron">
          -49 400 669 rmoveto
          -9 callgsubr
          169 -145 rlineto
          310 -259 -6 callgsubr
        </CharString>
        <CharString name="Ccedilla">
          -49 281 165 callgsubr
          313 459 -6 callgsubr
        </CharString>
        <CharString name="D">
          1 505 212 callgsubr
          -269 504 269 -73 callsubr
          -410 90 rmoveto
          -622 442 vlineto
          141 callsubr
        </CharString>
        <CharString name="Dcaron">
          2 401 669 rmoveto
          -9 callgsubr
          169 -145 rlineto
          221 -579 38 callsubr
          -269 504 269 -73 callsubr
          -410 90 rmoveto
          -622 442 vlineto
          141 callsubr
        </CharString>
        <CharString name="Dcroat">
          55 559 212 callgsubr
          -268 224 188 61 -188 219 268 -73 callsubr
          -409 90 rmoveto
          -278 -56 -61 56 -283 440 vlineto
          141 callsubr
        </CharString>
        <CharString name="E">
          -106 207 59 rmoveto
          230 76 callgsubr
          vlineto
          endchar
        </CharString>
        <CharString name="Eacute">
          -107 542 814 44 callsubr
          -172 -610 rmoveto
          230 76 callgsubr
          vlineto
          endchar
        </CharString>
        <CharString name="Ecaron">
          -107 389 669 rmoveto
          -9 callgsubr
          169 -145 rlineto
          -67 -380 rmoveto
          76 callgsubr
          -341 hlineto
          endchar
        </CharString>
        <CharString name="Ecircumflex">
          -107 320 768 rmoveto
          41 callgsubr
          -169 -146 rlineto
          118 hlineto
          -5 -380 rmoveto
          76 callgsubr
          -341 hlineto
          endchar
        </CharString>
        <CharString name="Edieresis">
          -97 517 760 256 callsubr
          -268 91 256 callsubr
          -42 -610 rmoveto
          230 285 59 -285 215 326 59 -439 -622 453 59 vlineto
          endchar
        </CharString>
        <CharString name="Edotaccent">
          -107 395 767 302 callsubr
          -189 -610 rmoveto
          230 76 callgsubr
          vlineto
          endchar
        </CharString>
        <CharString name="Egrave">
          -107 370 669 145 callgsubr
          -62 -610 rmoveto
          230 76 callgsubr
          vlineto
          endchar
        </CharString>
        <CharString name="Emacron">
          -107 506 727 256 callgsubr
          -300 -610 rmoveto
          230 76 callgsubr
          vlineto
          endchar
        </CharString>
        <CharString name="Eogonek">
          -107 404 286 callsubr
          148 -341 230 286 59 -286 215 327 59 -439 -622 349 277 callsubr
          hlineto
          endchar
        </CharString>
        <CharString name="Eth">
          17 522 212 callgsubr
          -267 224 187 61 -187 219 267 -73 callsubr
          -409 90 rmoveto
          -278 -55 -61 55 -283 441 vlineto
          141 callsubr
        </CharString>
        <CharString name="Euro">
          -1 643 410 rmoveto
          133 -48 callgsubr
          -353 77 callgsubr
          -138 -95 -59 95 -69 -95 -59 95 -139 -75 callgsubr
          353 -44 callgsubr
          133 -111 -122 -35 callsubr
          -227 -87 callgsubr
          128 171 59 -171 69 171 59 -171 127 -84 callsubr
          227 -73 callsubr
          -122 vlineto
          endchar
        </CharString>
        <CharString name="F">
          -136 535 563 rmoveto
          59 -440 -622 112 265 289 59 -289 239 vlineto
          endchar
        </CharString>
        <CharString name="G">
          -28 596 431 26 callsubr
        </CharString>
        <CharString name="Gbreve">
          -29 464 669 70 callgsubr
          390 -238 26 callsubr
        </CharString>
        <CharString name="H">
          49 544 7 callgsubr
          -281 -339 281 -110 -622 110 282 339 -282 111 622 vlineto
          endchar
        </CharString>
        <CharString name="I">
          -380 104 7 callgsubr
          -622 112 622 vlineto
          endchar
        </CharString>
        <CharString name="Iacute">
          198 callgsubr
          -101 47 90 callsubr
          endchar
        </CharString>
        <CharString name="Icircumflex">
          198 callgsubr
          -278 48 rmoveto
          118 hlineto
          109 99 41 callgsubr
          endchar
        </CharString>
        <CharString name="Idieresis">
          -385 103 7 callgsubr
          -622 111 622 vlineto
          -259 138 225 callsubr
        </CharString>
        <CharString name="Idotaccent">
          -404 94 503 rmoveto
          -503 110 503 vlineto
          -118 145 rmoveto
          -98 125 98 vlineto
          endchar
        </CharString>
        <CharString name="Igrave">
          198 callgsubr
          -156 192 167 callsubr
        </CharString>
        <CharString name="Imacron">
          198 callgsubr
          -238 47 275 callgsubr
          endchar
        </CharString>
        <CharString name="Iogonek">
          -385 67 286 callsubr
          89 5 622 -112 -622 3 277 callsubr
          hlineto
          endchar
        </CharString>
        <CharString name="J">
          -100 37 222 rmoveto
          -143 -75 callgsubr
          320 158 callsubr
          -111 -532 vlineto
          -26 -5 -5 -26 107 callgsubr
          132 vlineto
          endchar
        </CharString>
        <CharString name="K">
          -21 517 7 callgsubr
          263 callgsubr
          -551 hmoveto
          -622 107 622 vlineto
          endchar
        </CharString>
        <CharString name="L">
          -153 204 59 209 callsubr
        </CharString>
        <CharString name="Lacute">
          -155 375 814 44 callsubr
          -8 -610 209 callsubr
        </CharString>
        <CharString name="Lcaron">
          -155 377 815 rmoveto
          -117 hlineto
          -110 -98 -109 98 rlineto
          -118 hlineto
          169 -145 rlineto
          116 hlineto
          -5 -611 209 callsubr
        </CharString>
        <CharString name="Lslash">
          -151 205 59 rmoveto
          224 vlineto
          167 56 rlineto
          62 vlineto
          -167 -56 rlineto
          277 -109 -313 vlineto
          -122 -41 rlineto
          -62 vlineto
          122 41 rlineto
          -247 425 59 vlineto
          endchar
        </CharString>
        <CharString name="M">
          174 478 135 rmoveto
          205 362 rlineto
          -497 97 622 -119 vlineto
          -228 -404 -220 404 rlineto
          -118 -622 96 497 hlineto
          198 -362 rlineto
          endchar
        </CharString>
        <CharString name="N">
          24 529 129 callsubr
          endchar
        </CharString>
        <CharString name="NULL">
          -700 endchar
        </CharString>
        <CharString name="Nacute">
          23 324 667 90 callsubr
          64 -190 225 callgsubr
        </CharString>
        <CharString name="Ncaron">
          23 312 669 rmoveto
          116 hlineto
          -9 callgsubr
          385 -192 225 callgsubr
        </CharString>
        <CharString name="Ntilde">
          23 528 129 callsubr
          -374 126 rmoveto
          -6 callsubr
          56 vlineto
          15 5 8 13 vhcurveto
          endchar
        </CharString>
        <CharString name="O">
          96 callsubr
          endchar
        </CharString>
        <CharString name="OE">
          262 483 212 callgsubr
          -226 -87 callgsubr
          442 -84 callsubr
          226 -73 callsubr
          114 -473 rmoveto
          230 264 59 -264 215 297 59 -384 -16 vlineto
          11 -14 -19 5 -26 hhcurveto
          -287 -1 callgsubr
          287 hlineto
          26 19 5 10 14 hvcurveto
          -15 396 59 vlineto
          endchar
        </CharString>
        <CharString name="Oacute">
          -26 296 669 90 callsubr
          153 -271 -36 callgsubr
          endchar
        </CharString>
        <CharString name="Ocircumflex">
          -26 110 669 rmoveto
          118 hlineto
          109 99 41 callgsubr
          310 -272 -36 callgsubr
          endchar
        </CharString>
        <CharString name="Odieresis">
          -30 589 543 6 callgsubr
          -224 -87 callgsubr
          442 -84 callsubr
          224 -73 callsubr
          -77 228 297 callsubr
        </CharString>
        <CharString name="Ograve">
          96 callsubr
          -228 282 167 callsubr
        </CharString>
        <CharString name="Ohungarumlaut">
          -30 338 callsubr
          -464 -75 callgsubr
          346 -44 callgsubr
          464 -48 callgsubr
          -30 -90 rmoveto
          -442 -35 callsubr
          -224 -87 callgsubr
          442 -84 callsubr
          224 -73 callsubr
          -135 299 rmoveto
          265 callsubr
          103 hmoveto
          264 callsubr
          endchar
        </CharString>
        <CharString name="Omacron">
          -26 152 670 275 callgsubr
          437 -185 -36 callgsubr
          endchar
        </CharString>
        <CharString name="Oslash">
          6 505 87 38 callsubr
          -244 hlineto
          -7 -6 0 2 -4 hvcurveto
          292 414 rlineto
          -306 63 268 callgsubr
          244 hlineto
          9 7 -1 -2 5 hvcurveto
          -296 -417 rlineto
          429 500 rmoveto
          -75 hlineto
          -17 -24 rlineto
          -3 hlineto
          -360 77 callgsubr
          -464 vlineto
          -25 6 -19 11 -13 vhcurveto
          -32 -46 rlineto
          76 hlineto
          17 24 rlineto
          1 hlineto
          360 -44 callgsubr
          464 vlineto
          25 -6 18 -11 13 vhcurveto
          endchar
        </CharString>
        <CharString name="Otilde">
          96 callsubr
          -254 216 rmoveto
          -6 callsubr
          56 vlineto
          15 5 8 13 vhcurveto
          endchar
        </CharString>
        <CharString name="P">
          -27 508 293 38 callsubr
          -273 301 273 -73 callsubr
          -413 90 rmoveto
          -622 109 203 334 vlineto
          -34 callgsubr
          261 79 callgsubr
        </CharString>
        <CharString name="Q">
          -60 177 532 268 callgsubr
          225 -73 callsubr
          -442 -35 callsubr
          -225 -87 callgsubr
          396 -187 rmoveto
          -117 97 rlineto
          37 -44 callgsubr
          464 vlineto
          36 callsubr
          182 hlineto
          112 -97 rlineto
          endchar
        </CharString>
        <CharString name="R">
          -7 204 563 50 callgsubr
        </CharString>
        <CharString name="Racute">
          -8 560 812 44 callsubr
          -193 -104 50 callgsubr
        </CharString>
        <CharString name="Rcaron">
          -8 409 668 rmoveto
          -9 callgsubr
          169 -145 rlineto
          -90 -105 50 callgsubr
        </CharString>
        <CharString name="S">
          -46 470 90 60 callsubr
        </CharString>
        <CharString name="Sacute">
          -46 286 667 90 callsubr
          44 -722 60 callsubr
        </CharString>
        <CharString name="Scaron">
          -46 274 668 rmoveto
          116 hlineto
          -9 callgsubr
          365 -723 60 callsubr
        </CharString>
        <CharString name="T">
          -130 561 622 287 callsubr
        </CharString>
        <CharString name="Tcaron">
          -129 345 668 rmoveto
          -9 callgsubr
          169 -145 rlineto
          332 -46 287 callsubr
        </CharString>
        <CharString name="Thorn">
          -27 499 192 38 callsubr
          -263 300 263 -73 callsubr
          -294 90 rmoveto
          102 -110 -622 110 102 323 vlineto
          -34 callgsubr
          260 79 callgsubr
        </CharString>
        <CharString name="U">
          151 callsubr
          endchar
        </CharString>
        <CharString name="Uacute">
          -10 299 669 90 callsubr
          -244 -192 6 callsubr
          endchar
        </CharString>
        <CharString name="Ucircumflex">
          -10 116 669 rmoveto
          118 hlineto
          109 99 41 callgsubr
          -90 -193 6 callsubr
          endchar
        </CharString>
        <CharString name="Udieresis">
          -10 496 7 callgsubr
          157 callsubr
          -239 -87 callgsubr
          532 -110 -543 341 callsubr
          26 26 53 hvcurveto
          543 vlineto
          -468 138 225 callsubr
        </CharString>
        <CharString name="Ugrave">
          151 callsubr
          73 724 167 callsubr
        </CharString>
        <CharString name="Uhungarumlaut">
          -14 195 7 callgsubr
          -110 -543 249 callgsubr
          362 158 callsubr
          -109 157 callsubr
          -239 -87 callgsubr
          365 739 rmoveto
          -150 276 callsubr
          175 162 rlineto
          -333 hmoveto
          265 callsubr
          endchar
        </CharString>
        <CharString name="Umacron">
          151 callsubr
          -38 579 275 callgsubr
          endchar
        </CharString>
        <CharString name="Uogonek">
          -10 496 7 callgsubr
          157 callsubr
          -239 -87 callgsubr
          532 -110 -543 -75 callgsubr
          127 181 callsubr
          130 158 callsubr
          vlineto
          endchar
        </CharString>
        <CharString name="Uring">
          -10 511 775 111 callsubr
          -243 -144 6 callsubr
          endchar
        </CharString>
        <CharString name="V">
          -5 552 7 callgsubr
          -205 -548 -203 548 rlineto
          -111 hlineto
          240 -622 rlineto
          148 hlineto
          241 622 rlineto
          endchar
        </CharString>
        <CharString name="W">
          364 922 7 callgsubr
          -176 -545 -156 545 rlineto
          -117 hlineto
          -158 -545 -170 545 rlineto
          -111 hlineto
          209 -622 rlineto
          143 hlineto
          145 501 145 -501 rlineto
          144 hlineto
          210 622 rlineto
          endchar
        </CharString>
        <CharString name="X">
          -24 401 320 rmoveto
          230 302 rlineto
          -118 hlineto
          -175 -235 -177 235 rlineto
          -121 hlineto
          235 -306 -245 -316 rlineto
          118 hlineto
          190 249 187 -249 rlineto
          121 hlineto
          endchar
        </CharString>
        <CharString name="Y">
          -55 636 622 196 callgsubr
          -419 rlineto
          -203 110 203 vlineto
          endchar
        </CharString>
        <CharString name="Yacute">
          -56 558 814 44 callsubr
          242 -47 196 callgsubr
          -419 rlineto
          -203 110 203 vlineto
          endchar
        </CharString>
        <CharString name="Ydieresis">
          -55 262 760 256 callsubr
          268 91 256 callsubr
          106 -47 196 callgsubr
          -420 rlineto
          -202 110 202 vlineto
          endchar
        </CharString>
        <CharString name="Z">
          -68 576 622 140 callsubr
        </CharString>
        <CharString name="Zacute">
          -68 549 814 44 callsubr
          191 139 callgsubr
        </CharString>
        <CharString name="Zcaron">
          -68 382 669 rmoveto
          -9 callgsubr
          169 -145 rlineto
          310 139 callgsubr
        </CharString>
        <CharString name="Zdotaccent">
          -68 395 767 302 callsubr
          181 139 callgsubr
        </CharString>
        <CharString name="a">
          -66 214 59 -80 callgsubr
        </CharString>
        <CharString name="aacute">
          -67 533 677 44 callsubr
          -156 -473 -80 callgsubr
        </CharString>
        <CharString name="abreve">
          -67 443 532 70 callgsubr
          29 -473 -80 callgsubr
        </CharString>
        <CharString name="acircumflex">
          -67 314 631 rmoveto
          41 callgsubr
          -169 -146 rlineto
          118 hlineto
          8 -473 -80 callgsubr
        </CharString>
        <CharString name="acute">
          -86 169 506 90 callsubr
          endchar
        </CharString>
        <CharString name="adieresis">
          -67 521 7 callgsubr
          -139 -90 139 hlineto
          -268 90 rmoveto
          -139 -90 139 hlineto
          -40 -473 -80 callgsubr
        </CharString>
        <CharString name="ae">
          274 214 59 267 callgsubr
          72 vlineto
          241 54 rlineto
          -127 vlineto
          -23 -10 -7 -23 vhcurveto
          369 367 rmoveto
          26 35 callsubr
          -117 -261 117 -84 callsubr
          326 -207 rmoveto
          1 9 186 -48 callgsubr
          -273 hlineto
          -44 -18 -18 -20 -6 hvcurveto
          20 -6 -21 18 -47 hhcurveto
          -247 77 callgsubr
          -97 107 86 -84 callsubr
          177 hlineto
          23 10 -6 -24 hvcurveto
          -117 vlineto
          -348 -79 rlineto
          -121 -75 callgsubr
          247 hlineto
          47 21 18 20 6 hvcurveto
          -20 6 18 -18 44 hhcurveto
          270 -44 callgsubr
          61 -105 -50 -35 callsubr
          -196 131 callsubr
          vlineto
          endchar
        </CharString>
        <CharString name="agrave">
          -67 376 532 145 callgsubr
          -61 -473 -80 callgsubr
        </CharString>
        <CharString name="amacron">
          -67 492 591 256 callgsubr
          -279 -474 -80 callgsubr
        </CharString>
        <CharString name="ampersand">
          144 212 59 267 callgsubr
          61 vlineto
          31 9 16 34 12 vhcurveto
          103 38 229 -189 rlineto
          -202 277 rmoveto
          -62 51 -30 19 47 vvcurveto
          79 -84 callsubr
          196 -73 callsubr
          -86 vlineto
          -40 -16 -18 -44 -16 vhcurveto
          -104 -38 rlineto
          454 -379 rmoveto
          -64 53 rlineto
          27 12 13 25 38 vvcurveto
          145 -87 -138 vlineto
          -19 -3 -8 -12 -3 vhcurveto
          -265 222 119 44 rlineto
          60 22 28 32 72 vvcurveto
          91 -48 callgsubr
          -312 77 callgsubr
          -101 vlineto
          -59 40 -26 58 -48 vhcurveto
          10 -9 -113 -41 rlineto
          -56 -20 -20 -23 -53 vvcurveto
          -84 -75 callgsubr
          474 hlineto
          54 -45 rlineto
          endchar
        </CharString>
        <CharString name="aogonek">
          -67 213 205 callsubr
          -5 -237 89 callsubr
          89 3 485 -107 -31 hlineto
          -61 callsubr
          -66 -77 vlineto
          72 callsubr
        </CharString>
        <CharString name="approxequal">
          84 179 293 rmoveto
          57 vlineto
          32 342 callgsubr
          83 -56 hlineto
          -31 -14 338 callgsubr
          445 160 rmoveto
          -104 -58 hlineto
          -32 -14 -11 -38 vhcurveto
          -125 -44 101 -120 hhcurveto
          -111 hlineto
          -55 -23 -27 -49 hvcurveto
          -86 55 vlineto
          -39 -7 -16 -27 -41 vvcurveto
          -86 104 60 vlineto
          31 342 callgsubr
          108 hlineto
          55 24 30 48 hvcurveto
          86 -51 vlineto
          35 9 16 26 39 vvcurveto
          endchar
        </CharString>
        <CharString name="aring">
          -67 224 629 51 callgsubr
          -6 -473 -80 callgsubr
        </CharString>
        <CharString name="asciicircum">
          -52 260 668 rmoveto
          -209 -340 rlineto
          107 hlineto
          167 274 165 -274 rlineto
          108 hlineto
          -210 340 rlineto
          endchar
        </CharString>
        <CharString name="asciitilde">
          83 231 270 rmoveto
          120 65 -102 106 hhcurveto
          108 hlineto
          55 23 30 48 hvcurveto
          86 -103 -59 vlineto
          -31 -15 338 callgsubr
          -111 hlineto
          -55 -22 -28 -49 hvcurveto
          -86 103 60 vlineto
          31 14 10 39 vhcurveto
          endchar
        </CharString>
        <CharString name="asterisk">
          -223 196 652 rmoveto
          -64 vlineto
          -26 4 -23 5 -17 vhcurveto
          -17 10 -20 11 -25 8 -60 20 rcurveline
          -27 -83 61 -20 22 -6 22 -5 21 -1 rlinecurve
          -15 -12 -17 -16 -15 -21 -37 -51 rcurveline
          70 -51 37 51 15 21 11 21 6 17 rlinecurve
          7 -17 10 -21 15 -22 38 -52 rcurveline
          70 51 -38 52 -14 21 -17 16 -14 12 rlinecurve
          18 24 3 8 24 hvcurveto
          61 20 -26 83 -61 -21 -24 -8 -21 -10 -15 -11 rlinecurve
          5 19 4 23 27 vvcurveto
          64 vlineto
          endchar
        </CharString>
        <CharString name="at">
          413 408 426 rmoveto
          -50 -24 -24 -51 hvcurveto
          -198 vlineto
          -51 24 -24 50 vhcurveto
          190 hlineto
          30 24 11 32 5 hvcurveto
          -62 305 vlineto
          51 24 24 51 hvcurveto
          354 vlineto
          51 -24 24 -51 vhcurveto
          -801 hlineto
          -51 -24 -24 -51 hvcurveto
          -485 vlineto
          -50 24 -25 51 vhcurveto
          717 61 -666 hlineto
          -25 -5 5 24 hvcurveto
          454 vlineto
          25 5 5 25 vhcurveto
          701 hlineto
          24 5 -5 -25 hvcurveto
          -325 vlineto
          -24 -5 -5 -24 vhcurveto
          -167 308 -96 -31 hlineto
          21 -7 -20 10 -25 hhcurveto
          -168 -88 rmoveto
          24 4 5 25 vhcurveto
          159 hlineto
          22 10 -8 -24 hvcurveto
          -166 vlineto
          -24 -10 -8 -22 vhcurveto
          -159 hlineto
          -25 -4 5 24 hvcurveto
          endchar
        </CharString>
        <CharString name="atilde">
          -67 188 588 rmoveto
          15 5 8 13 vhcurveto
          -6 callsubr
          vlineto
          25 -473 -80 callgsubr
        </CharString>
        <CharString name="b">
          -66 452 212 callgsubr
          -194 hlineto
          -24 -10 9 25 hvcurveto
          24 -1 242 1 33 328 callgsubr
          24 vhcurveto
          194 -73 callsubr
          -204 90 314 callgsubr
          33 vlineto
          -23 8 19 -10 29 hhcurveto
          231 297 callgsubr
        </CharString>
        <CharString name="backslash">
          -301 -87 699 rmoveto
          414 -835 rlineto
          103 hlineto
          -414 835 rlineto
          endchar
        </CharString>
        <CharString name="bar">
          -407 95 739 rmoveto
          -857 103 857 vlineto
          endchar
        </CharString>
        <CharString name="braceleft">
          -291 287 608 rmoveto
          35 8 18 34 vhcurveto
          116 59 -149 hlineto
          -85 -33 -34 -80 hvcurveto
          -220 vlineto
          -76 -26 -32 -63 vhcurveto
          -17 -59 17 hlineto
          63 26 -33 -75 hvcurveto
          -219 vlineto
          -79 33 -34 85 vhcurveto
          149 59 -116 hlineto
          -34 -8 18 35 hvcurveto
          235 vlineto
          68 -26 48 -54 5 vhcurveto
          54 6 26 46 70 vvcurveto
          endchar
        </CharString>
        <CharString name="braceright">
          -289 124 369 rmoveto
          -70 26 -46 55 -6 vhcurveto
          -55 -5 -26 -48 -68 vvcurveto
          -235 vlineto
          -35 -8 -18 -34 vhcurveto
          -116 -59 149 hlineto
          85 33 34 79 hvcurveto
          219 vlineto
          75 27 33 63 vhcurveto
          16 59 -16 hlineto
          -63 -27 32 76 hvcurveto
          220 vlineto
          80 -33 34 -85 vhcurveto
          -149 -59 116 hlineto
          34 8 -18 -35 hvcurveto
          endchar
        </CharString>
        <CharString name="bracketleft">
          -372 367 661 rmoveto
          59 -273 -940 273 59 -163 822 vlineto
          endchar
        </CharString>
        <CharString name="bracketright">
          -372 234 720 rmoveto
          -273 -59 163 -822 -163 -59 273 hlineto
          endchar
        </CharString>
        <CharString name="breve">
          -86 418 646 rmoveto
          115 callsubr
          -161 -87 callgsubr
          51 -97 -60 -75 callgsubr
          259 hlineto
          325 callgsubr
          vlineto
          endchar
        </CharString>
        <CharString name="brokenbar">
          -425 87 249 rmoveto
          -367 102 367 vlineto
          123 vmoveto
          367 -102 -367 vlineto
          endchar
        </CharString>
        <CharString name="bullet">
          -253 224 450 rmoveto
          -80 -65 -59 -72 -72 65 -59 80 80 65 59 72 72 -65 59 -80 hvcurveto
          endchar
        </CharString>
        <CharString name="c">
          -105 538 324 1 callgsubr
        </CharString>
        <CharString name="cacute">
          -107 532 677 44 callsubr
          169 -208 1 callgsubr
        </CharString>
        <CharString name="caron">
          -86 249 505 rmoveto
          116 hlineto
          -9 callgsubr
          endchar
        </CharString>
        <CharString name="ccaron">
          -107 360 532 rmoveto
          -9 callgsubr
          169 -145 rlineto
          293 -208 1 callgsubr
        </CharString>
        <CharString name="ccedilla">
          -107 253 165 callgsubr
          284 373 1 callgsubr
        </CharString>
        <CharString name="cedilla">
          -86 329 165 callgsubr
          endchar
        </CharString>
        <CharString name="cent">
          -107 537 324 rmoveto
          82 -48 callgsubr
          -102 76 -105 -76 -97 94 callsubr
          97 -77 105 77 102 17 callsubr
        </CharString>
        <CharString name="circumflex">
          -86 80 506 rmoveto
          118 hlineto
          109 99 41 callgsubr
          endchar
        </CharString>
        <CharString name="colon">
          -461 59 75 rmoveto
          120 119 -120 hlineto
          97 vmoveto
          120 119 -120 hlineto
          endchar
        </CharString>
        <CharString name="comma">
          -471 59 -138 rmoveto
          40 hlineto
          80 196 rlineto
          67 -120 vlineto
          endchar
        </CharString>
        <CharString name="commaaccent">
          -86 250 -229 140 callgsubr
        </CharString>
        <CharString name="copyright">
          350 966 341 rmoveto
          183 -65 98 -176 vhcurveto
          -400 hlineto
          -176 -65 -98 -183 hvcurveto
          -67 vlineto
          -183 65 -91 176 vhcurveto
          400 hlineto
          176 65 91 183 hvcurveto
          -630 -214 rmoveto
          -120 -36 83 127 hvcurveto
          75 vlineto
          127 36 92 120 vhcurveto
          378 hlineto
          120 36 -92 -127 hvcurveto
          -75 vlineto
          -127 -36 -83 -120 vhcurveto
          -84 180 38 callsubr
          -146 -87 callgsubr
          153 -84 callsubr
          146 -73 callsubr
          -29 90 40 -48 callgsubr
          -231 77 callgsubr
          -175 -75 callgsubr
          231 -44 callgsubr
          40 -90 vlineto
          endchar
        </CharString>
        <CharString name="currency">
          28 255 169 rmoveto
          -42 -11 6 42 hvcurveto
          158 vlineto
          42 11 10 42 vhcurveto
          225 hlineto
          40 13 -10 -42 hvcurveto
          -158 vlineto
          -42 -13 -6 -40 vhcurveto
          144 218 rmoveto
          18 -2 15 -5 13 vhcurveto
          46 46 -63 64 -59 -59 rlineto
          1 -9 -10 1 -10 hhcurveto
          -291 hlineto
          -12 -11 -1 -1 -10 hvcurveto
          -60 59 -63 -64 51 -50 rlineto
          -4 -12 -2 -14 -16 vvcurveto
          -177 vlineto
          -16 2 -14 4 -12 vhcurveto
          -51 -50 63 -63 59 58 rlineto
          -2 10 11 -1 13 hhcurveto
          291 hlineto
          11 10 1 1 9 hvcurveto
          58 -57 63 63 -46 46 rlineto
          5 13 2 15 18 vvcurveto
          endchar
        </CharString>
        <CharString name="d">
          -66 214 205 callsubr
          34 610 rmoveto
          -215 vlineto
          186 callsubr
          vlineto
          endchar
        </CharString>
        <CharString name="dagger">
          -98 522 462 rmoveto
          -165 160 -110 -160 -167 -59 167 -520 110 520 165 hlineto
          endchar
        </CharString>
        <CharString name="daggerdbl">
          -92 525 394 rmoveto
          59 -166 169 -109 -169 -168 -59 168 -317 -168 -59 168 -171 109 171 166 59 -166 317 vlineto
          endchar
        </CharString>
        <CharString name="danda">
          -273 189 hmoveto
          111 622 -111 hlineto
          endchar
        </CharString>
        <CharString name="dcaron">
          -59 441 454 rmoveto
          186 callsubr
          -107 vlineto
          197 hmoveto
          -174 35 vlineto
          70 126 rlineto
          48 vlineto
          -530 -610 rmoveto
          10 callgsubr
          194 hlineto
          24 10 -9 -25 hvcurveto
          -299 138 callgsubr
          endchar
        </CharString>
        <CharString name="dcroat">
          -66 214 205 callsubr
          209 540 rmoveto
          -68 70 -107 -70 -240 -59 240 -86 hlineto
          -61 callsubr
          -31 107 540 68 vlineto
          endchar
        </CharString>
        <CharString name="degree">
          -135 506 545 rmoveto
          52 -9 callsubr
          -291 hlineto
          -52 -25 -25 -52 hvcurveto
          -137 vlineto
          -52 25 -25 52 vhcurveto
          291 hlineto
          53 25 25 52 hvcurveto
          -100 212 callsubr
          -183 -87 callgsubr
          116 -84 callsubr
          183 -73 callsubr
          endchar
        </CharString>
        <CharString name="dieresis">
          -86 371 629 296 callgsubr
        </CharString>
        <CharString name="divide">
          -45 339 callgsubr
          215 156 rmoveto
          -84 110 84 vlineto
          -110 -306 rmoveto
          -85 110 85 vlineto
          endchar
        </CharString>
        <CharString name="dollar">
          -47 214 343 267 callgsubr
          158 -84 callsubr
          220 -73 callsubr
          -90 109 101 -48 callgsubr
          -119 92 -106 -92 -118 117 callgsubr
          286 -73 callsubr
          -163 -35 callsubr
          -222 -87 callgsubr
          90 -110 -101 -75 callgsubr
          116 -91 106 91 122 144 callsubr
          endchar
        </CharString>
        <CharString name="dotaccent">
          -86 245 531 rmoveto
          125 98 -125 hlineto
          endchar
        </CharString>
        <CharString name="dotlessi">
          -405 94 485 rmoveto
          -485 107 485 vlineto
          endchar
        </CharString>
        <CharString name="dottedcircle">
          -40 139 517 rmoveto
          -26 18 -19 26 26 18 19 26 25 -18 19 -26 -26 -18 -19 -25 vhcurveto
          -82 -110 rmoveto
          -25 20 -19 26 24 20 19 25 25 -20 19 -24 -26 -20 -19 -25 vhcurveto
          -13 -126 rmoveto
          -25 19 -18 25 26 18 18 337 callsubr
          52 -116 rmoveto
          -26 18 -18 26 25 19 18 26 25 -19 19 -25 -26 -18 -19 -25 vhcurveto
          101 -75 rmoveto
          -26 19 -20 26 25 19 20 26 24 -19 20 -25 -26 -19 -20 -24 vhcurveto
          127 -16 rmoveto
          -26 18 -18 26 26 19 18 26 26 -19 18 -26 -26 -18 -18 -26 vhcurveto
          121 53 rmoveto
          -26 19 -18 25 25 20 18 26 25 -20 19 -25 -25 -19 -19 -25 vhcurveto
          73 98 rmoveto
          -25 19 -19 26 24 19 19 25 26 -19 19 -24 -26 -19 -19 -26 vhcurveto
          10 134 rmoveto
          -26 18 -18 26 25 19 18 26 26 -19 18 -25 -26 -18 -18 -26 vhcurveto
          -50 118 rmoveto
          -25 19 -19 25 26 18 19 337 callsubr
          -95 68 rmoveto
          -24 19 -20 26 25 18 20 24 26 -18 19 -25 -26 -19 -19 -26 vhcurveto
          -126 15 rmoveto
          -26 18 -18 26 26 18 18 26 26 -18 18 -26 -26 -18 -18 -26 vhcurveto
          endchar
        </CharString>
        <CharString name="doubledanda">
          95 189 hmoveto
          111 622 -111 hlineto
          369 -622 rmoveto
          111 622 -111 hlineto
          endchar
        </CharString>
        <CharString name="dvA">
          367 1087 7 callgsubr
          -261 -78 callsubr
          148 vlineto
          endchar
        </CharString>
        <CharString name="dvAA">
          720 1440 7 callgsubr
          -614 -78 callsubr
          240 130 callsubr
        </CharString>
        <CharString name="dvAI">
          89 809 7 callgsubr
          -129 196 callsubr
          -589 40 callsubr
        </CharString>
        <CharString name="dvAU">
          763 1483 7 callgsubr
          -150 hlineto
          -43 200 rlineto
          -95 99 callgsubr
          -336 -78 callsubr
          231 130 callsubr
        </CharString>
        <CharString name="dvAbbreviationsign">
          -38 469 218 rmoveto
          214 callgsubr
          -214 -40 callsubr
          126 -3 callsubr
          214 16 callsubr
          -297 88 327 callsubr
          -146 -93 callsubr
          317 -101 callgsubr
          146 -49 callsubr
          endchar
        </CharString>
        <CharString name="dvAcandra">
          367 1087 7 callgsubr
          -261 -78 callsubr
          148 vlineto
          -60 289 rmoveto
          75 callgsubr
          345 -101 callgsubr
          89 vlineto
          endchar
        </CharString>
        <CharString name="dvAnusvara">
          -700 -242 687 rmoveto
          113 101 -113 hlineto
          endchar
        </CharString>
        <CharString name="dvAnusvara.amI">
          -700 84 685 rmoveto
          114 101 -114 hlineto
          endchar
        </CharString>
        <CharString name="dvAvagraha">
          8 251 369 rmoveto
          -26 -7 -23 callgsubr
          132 vlineto
          26 7 -7 callsubr
          356 59 -423 149 callsubr
          -156 79 callsubr
          283 hlineto
          26 5 -6 -26 hvcurveto
          -188 -35 callsubr
          -213 hlineto
          -26 -7 6 26 hvcurveto
          92 -111 -104 vlineto
          -53 24 1 callsubr
          346 -101 callgsubr
          213 -49 callsubr
          endchar
        </CharString>
        <CharString name="dvB">
          -229 549 7 callgsubr
          -569 -59 569 hlineto
          -346 -277 rmoveto
          44 -4 59 0 vhcurveto
          393 -252 rlineto
          -358 -101 callsubr
          414 -31 rmoveto
          1 38 -388 251 -21 callsubr
          453 59 hlineto
          endchar
        </CharString>
        <CharString name="dvBA">
          129 234 230 callsubr
          295 485 rmoveto
          -869 -59 608 -250 hlineto
          -89 8 -47 0 vhcurveto
          -366 249 rlineto
          316 59 -375 hlineto
          -53 -25 -25 -53 hvcurveto
          92 callsubr
        </CharString>
        <CharString name="dvBH">
          19 122 callgsubr
          372 59 rmoveto
          -260 174 hlineto
          -32 callsubr
          260 vlineto
          endchar
        </CharString>
        <CharString name="dvBHA">
          383 122 callgsubr
          586 311 rmoveto
          -261 -252 -213 174 hlineto
          -32 callsubr
          213 -311 -68 callsubr
        </CharString>
        <CharString name="dvBH_LA">
          1180 122 callgsubr
          1383 311 rmoveto
          -1168 -59 907 -78 -285 330 callsubr
          -5 hlineto
          10 callsubr
          -309 39 callsubr
          -37 -224 174 vlineto
          -32 callsubr
          224 -233 -67 callgsubr
          286 59 -221 -103 callgsubr
          217 277 callgsubr
          249 279 callgsubr
        </CharString>
        <CharString name="dvBH_NA">
          1100 1238 168 -107 callgsubr
          -721 -259 33 callgsubr
          1303 311 rmoveto
          -1094 -59 833 -78 -652 hlineto
          -94 callsubr
          -37 -200 174 vlineto
          -32 callsubr
          200 -155 vlineto
          -53 25 -25 53 vhcurveto
          -43 callgsubr
        </CharString>
        <CharString name="dvBH_R">
          17 537 -66 rmoveto
          137 hlineto
          217 202 -12 98 rlineto
          -363 -58 241 callgsubr
          111 59 rmoveto
          167 -49 callsubr
          -361 hlineto
          -94 callsubr
          -93 112 81 -3 callsubr
          231 hlineto
          26 5 311 callsubr
          -134 341 callsubr
          25 26 53 hvcurveto
          153 270 59 vlineto
          endchar
        </CharString>
        <CharString name="dvBH_RA">
          381 516 176 241 callgsubr
          585 304 rmoveto
          -259 -245 -215 167 hlineto
          -19 callgsubr
          -361 hlineto
          -94 callsubr
          -93 112 81 -3 callsubr
          231 hlineto
          26 5 311 callsubr
          -134 341 callsubr
          25 26 53 hvcurveto
          153 215 -111 vlineto
          -305 -273 rlineto
          137 hlineto
          175 169 rlineto
          0 -5 226 callsubr
          -42 callsubr
        </CharString>
        <CharString name="dvBH_R_YA">
          1021 1481 175 -103 callsubr
          -1244 -374 rmoveto
          -26 -6 7 25 hvcurveto
          115 -3 callsubr
          269 -146 hlineto
          -25 -6 -7 -26 vhcurveto
          1267 433 rmoveto
          -1004 -59 394 hlineto
          -74 callgsubr
          -216 hlineto
          39 -6 -26 19 -45 hhcurveto
          -221 118 hlineto
          41 callsubr
          -360 332 callsubr
          113 56 115 callgsubr
          6 283 callsubr
          -330 vlineto
          -94 callsubr
          -139 40 callgsubr
          362 -44 callgsubr
          158 183 vlineto
          26 35 callsubr
          -180 vlineto
          -6 0 -5 1 -5 vhcurveto
          -280 -231 rlineto
          138 hlineto
          198 171 rlineto
          -1 6 7 -1 8 hhcurveto
          -30 callsubr
        </CharString>
        <CharString name="dvBH_VA">
          831 122 callgsubr
          1034 311 rmoveto
          -815 -59 555 -392 hlineto
          -16 callgsubr
          -37 -235 174 vlineto
          -32 callsubr
          235 -155 vlineto
          152 callsubr
        </CharString>
        <CharString name="dvBH_YA">
          1018 1477 175 38 callgsubr
          142 254 vlineto
          -91 callgsubr
          146 -45 callgsubr
          215 hlineto
          -960 293 callsubr
          111 30 callsubr
          269 hlineto
          1221 312 rmoveto
          -1005 -59 395 hlineto
          -51 callsubr
          -131 -27 callsubr
          -499 175 hlineto
          53 -25 25 -53 vhcurveto
          -362 hlineto
          -53 -26 -25 -53 hvcurveto
          -99 113 87 vlineto
          163 callsubr
          199 -154 -93 callsubr
          535 hlineto
          17 12 4 9 7 hvcurveto
          -91 -68 callsubr
        </CharString>
        <CharString name="dvB_BA">
          634 738 230 callsubr
          -824 hmoveto
          -17 callgsubr
          789 485 rmoveto
          -1373 -59 1112 273 callgsubr
          -94 callsubr
          -215 vlineto
          228 callgsubr
          25 17 5 10 10 hvcurveto
          -10 13 18 -5 24 hhcurveto
          385 56 callgsubr
          563 148 vlineto
          endchar
        </CharString>
        <CharString name="dvB_BHA">
          871 400 7 callgsubr
          -420 -59 420 hlineto
          606 -396 33 callgsubr
          -772 -174 rmoveto
          -17 callgsubr
          1028 485 rmoveto
          -261 -252 -213 174 hlineto
          12 callgsubr
          -162 -330 vlineto
          -94 callsubr
          -100 vlineto
          -368 32 callgsubr
          -8 callgsubr
          155 213 -311 -68 callsubr
        </CharString>
        <CharString name="dvB_BH_RA">
          852 382 7 callgsubr
          -402 -59 402 hlineto
          606 -387 rmoveto
          -25 254 callsubr
          -5 7 25 hvcurveto
          110 234 callgsubr
          -754 -181 143 callgsubr
          1026 485 rmoveto
          -258 -245 -215 167 hlineto
          -19 callgsubr
          -361 hlineto
          -94 callsubr
          -93 112 81 -3 callsubr
          230 hlineto
          26 6 311 callsubr
          -107 vlineto
          -350 234 rlineto
          299 59 -358 -16 callsubr
          381 hlineto
          28 18 7 13 11 hvcurveto
          -8 13 16 -4 21 hhcurveto
          362 237 callsubr
          153 215 -111 vlineto
          -306 -273 rlineto
          138 hlineto
          175 169 rlineto
          0 -5 315 callgsubr
        </CharString>
        <CharString name="dvB_DA">
          561 234 137 rmoveto
          -17 callgsubr
          560 289 173 callsubr
          -1301 -59 1032 -78 -336 vlineto
          -94 callsubr
          -215 vlineto
          -368 32 callgsubr
          -24 callgsubr
          endchar
        </CharString>
        <CharString name="dvB_DHA">
          826 419 7 callgsubr
          -439 -59 439 hlineto
          -185 -426 rmoveto
          -17 callgsubr
          982 485 rmoveto
          -260 -451 hlineto
          -26 -8 -8 -26 vhcurveto
          -510 hlineto
          -73 callgsubr
          -81 vlineto
          -368 32 callgsubr
          139 callsubr
        </CharString>
        <CharString name="dvB_DH_VA">
          1204 480 7 callgsubr
          -500 -59 500 hlineto
          -246 -426 143 callgsubr
          1378 485 rmoveto
          -744 -59 484 -392 hlineto
          -63 callgsubr
          -299 39 callsubr
          -237 39 callgsubr
          -477 -101 callsubr
          100 185 callgsubr
          151 59 -151 hlineto
          -26 -5 159 callgsubr
          5 -5 callsubr
          -24 25 -53 vhcurveto
          -343 39 callsubr
          -163 vlineto
          200 callgsubr
          -2 -16 -15 -34 vvcurveto
          -82 223 callgsubr
          26 17 5 12 10 hvcurveto
          -12 14 18 -5 25 hhcurveto
          546 72 callgsubr
        </CharString>
        <CharString name="dvB_JA">
          863 234 137 rmoveto
          -17 callgsubr
          1019 485 rmoveto
          -1603 -59 1342 154 callgsubr
          -293 vlineto
          -368 32 callgsubr
          161 callsubr
        </CharString>
        <CharString name="dvB_JHA">
          901 1361 331 rmoveto
          -614 hlineto
          97 callsubr
          207 hlineto
          -1127 -426 rmoveto
          -17 callgsubr
          1058 485 rmoveto
          -1642 -59 1063 -78 227 callgsubr
          236 callgsubr
          329 hlineto
          26 7 -6 -26 hvcurveto
          -72 vlineto
          -26 -7 5 callgsubr
          -298 53 -111 hlineto
          -371 236 -21 callsubr
          397 hlineto
          12 166 callsubr
          -81 114 78 365 vlineto
          132 callgsubr
          97 235 callsubr
          208 -272 125 callsubr
        </CharString>
        <CharString name="dvB_J_YA">
          1500 234 137 143 callgsubr
          780 348 rmoveto
          -343 -317 96 callgsubr
          -230 -101 callsubr
          317 -111 -293 vlineto
          -350 234 154 callsubr
          25 17 5 11 11 hvcurveto
          -11 13 19 -5 24 hhcurveto
          356 -43 callsubr
          270 232 vlineto
          633 -251 167 callgsubr
          -2240 -59 1630 294 callgsubr
          279 callsubr
          274 callgsubr
        </CharString>
        <CharString name="dvB_JxA">
          846 779 -87 -2 callsubr
          -545 124 143 callgsubr
          1020 485 rmoveto
          -1586 -59 1325 154 callgsubr
          -294 223 callgsubr
          26 17 5 11 10 hvcurveto
          -11 13 19 -5 24 hhcurveto
          161 callsubr
        </CharString>
        <CharString name="dvB_LA">
          925 234 137 rmoveto
          -17 callgsubr
          1081 485 rmoveto
          -1665 -59 1403 -78 243 callgsubr
          -215 vlineto
          -368 234 -21 callsubr
          397 hlineto
          12 166 callsubr
          -3 -55 callsubr
        </CharString>
        <CharString name="dvB_L_YA">
          1548 234 137 143 callgsubr
          812 348 rmoveto
          -277 330 callsubr
          -5 hlineto
          10 callsubr
          -309 hlineto
          -94 callsubr
          -216 223 callgsubr
          12 10 1 3 9 hvcurveto
          -4 313 callsubr
          -6 6 25 hvcurveto
          305 vlineto
          25 6 6 26 vhcurveto
          216 277 callgsubr
          241 hlineto
          650 -251 -44 callsubr
          -2288 -59 1678 hlineto
          -96 callsubr
        </CharString>
        <CharString name="dvB_NA">
          869 1007 168 -107 callgsubr
          -773 -289 25 callgsubr
          116 vlineto
          44 -4 60 0 vhcurveto
          390 -245 213 callgsubr
          1025 485 rmoveto
          -1609 -59 1348 -78 -652 hlineto
          -94 callsubr
          -213 vlineto
          -368 232 rlineto
          316 59 -375 hlineto
          -53 -25 -25 -53 hvcurveto
          -251 vlineto
          -53 25 -25 53 vhcurveto
          397 183 callgsubr
        </CharString>
        <CharString name="dvB_R">
          -229 491 7 callgsubr
          -511 -59 511 hlineto
          89 -418 rmoveto
          -346 -101 callsubr
          107 vlineto
          44 -4 59 0 vhcurveto
          413 -241 rmoveto
          41 vlineto
          -380 240 rlineto
          314 59 -375 hlineto
          -94 callsubr
          -243 -93 callsubr
          294 hlineto
          -131 -147 rlineto
          127 hlineto
          136 168 rlineto
          31 38 hlineto
          endchar
        </CharString>
        <CharString name="dvB_RA">
          129 557 145 260 callgsubr
          290 477 rmoveto
          -869 -59 608 -243 hlineto
          -92 8 -49 0 vhcurveto
          -364 247 rlineto
          314 59 -375 hlineto
          -94 callsubr
          193 callgsubr
        </CharString>
        <CharString name="dvB_SA">
          883 1342 339 rmoveto
          -223 hlineto
          -81 callgsubr
          232 hlineto
          -1108 -426 rmoveto
          -17 callgsubr
          1040 485 rmoveto
          -1624 -59 996 hlineto
          -55 callgsubr
          -113 -284 hlineto
          228 callgsubr
          11 166 callsubr
          -3 5 callsubr
        </CharString>
        <CharString name="dvB_SHA">
          879 400 7 callgsubr
          -420 -59 420 hlineto
          -166 -426 rmoveto
          -17 callgsubr
          112 485 179 callgsubr
          -181 hlineto
          228 callgsubr
          11 166 callsubr
          -3 98 callsubr
        </CharString>
        <CharString name="dvB_TA">
          590 234 137 rmoveto
          -17 callgsubr
          746 485 rmoveto
          -1330 -59 1069 -78 -373 hlineto
          -94 callsubr
          -215 vlineto
          -368 234 -21 callsubr
          397 hlineto
          12 166 callsubr
          -3 -46 callgsubr
        </CharString>
        <CharString name="dvB_VA">
          565 234 137 rmoveto
          -17 callgsubr
          721 485 rmoveto
          -1305 -59 1045 -392 hlineto
          -63 callgsubr
          -299 39 callsubr
          -215 vlineto
          -367 32 callgsubr
          -39 callgsubr
        </CharString>
        <CharString name="dvB_YA">
          788 1248 175 -103 callsubr
          -1014 -426 rmoveto
          -17 callgsubr
          944 485 rmoveto
          -1528 -59 918 hlineto
          -81 callsubr
          -176 hlineto
          -368 32 callgsubr
          -30 callsubr
        </CharString>
        <CharString name="dvC">
          -230 576 7 callgsubr
          -596 -59 596 hlineto
          -316 -426 rmoveto
          16 callgsubr
          426 59 hlineto
          endchar
        </CharString>
        <CharString name="dvCA">
          144 864 7 callgsubr
          -884 -59 623 -392 hlineto
          -26 -8 -8 -26 vhcurveto
          -309 hlineto
          -26 -6 6 25 hvcurveto
          227 vlineto
          24 6 152 callgsubr
        </CharString>
        <CharString name="dvCH">
          357 1077 563 rmoveto
          59 -1097 -59 142 vlineto
          82 callsubr
          53 -25 25 -53 vhcurveto
          -334 -61 callgsubr
          endchar
        </CharString>
        <CharString name="dvCHA">
          358 645 485 rmoveto
          -109 -61 callgsubr
          389 hlineto
          433 hmoveto
          59 -1098 -59 142 vlineto
          82 callsubr
          53 -25 25 -53 vhcurveto
          -115 78 hlineto
          endchar
        </CharString>
        <CharString name="dvCH_RA">
          358 651 485 rmoveto
          -115 39 callsubr
          -154 -75 callgsubr
          171 59 -113 203 callgsubr
          130 -3 callsubr
          221 -20 callgsubr
          -302 42 callgsubr
          -559 -87 callgsubr
          156 -84 callsubr
          155 59 -155 -87 callgsubr
          162 -84 callsubr
          395 hlineto
          427 hmoveto
          59 -1098 -59 142 vlineto
          101 callgsubr
          53 -25 25 -53 vhcurveto
          -115 78 hlineto
          endchar
        </CharString>
        <CharString name="dvCH_R_YA">
          1307 1766 175 149 callgsubr
          -464 166 callgsubr
          -946 39 callsubr
          -154 -75 callgsubr
          171 59 -113 203 callgsubr
          130 -3 callsubr
          221 -20 callgsubr
          -302 42 callgsubr
          -559 -87 callgsubr
          156 -84 callsubr
          155 59 -155 -87 callgsubr
          162 -84 callsubr
          1510 hlineto
          168 callgsubr
          -2047 -59 142 hlineto
          101 callgsubr
          7 0 6 -1 6 vhcurveto
          469 160 callsubr
        </CharString>
        <CharString name="dvCH_YA">
          1319 1778 175 rmoveto
          334 callsubr
          -465 166 callgsubr
          -615 0 -9 hlineto
          -334 -61 callgsubr
          1522 hlineto
          168 callgsubr
          -2059 -59 142 hlineto
          82 callsubr
          7 0 6 -1 6 vhcurveto
          482 105 callgsubr
          532 hlineto
          17 12 4 9 7 hvcurveto
          -91 -68 callsubr
        </CharString>
        <CharString name="dvC_CA">
          624 1344 7 callgsubr
          -1364 -59 1101 216 callgsubr
          -5 6 25 hvcurveto
          227 vlineto
          24 5 174 callgsubr
          -381 -59 91 hlineto
          93 callsubr
          -227 39 callgsubr
          -300 -40 callsubr
          227 vlineto
          24 6 7 24 vhcurveto
          157 59 -383 -59 94 hlineto
          93 callsubr
          -241 -93 callsubr
          370 22 callsubr
          377 321 callsubr
          151 vlineto
          endchar
        </CharString>
        <CharString name="dvC_CHA">
          849 1136 485 rmoveto
          -109 -61 callgsubr
          389 hlineto
          433 hmoveto
          59 -1589 -59 633 247 callsubr
          -84 39 callgsubr
          -309 34 callgsubr
          379 hlineto
          12 166 callsubr
          -3 134 callgsubr
        </CharString>
        <CharString name="dvC_CH_VA">
          848 1164 485 rmoveto
          -139 39 callsubr
          -131 -75 callgsubr
          171 59 -113 -40 callsubr
          108 -3 callsubr
          221 -20 callgsubr
          -277 42 callgsubr
          -560 3 callsubr
          131 25 callsubr
          155 59 -155 3 callsubr
          162 25 callsubr
          420 hlineto
          -249 -691 rmoveto
          -26 -6 -23 callgsubr
          93 30 callsubr
          252 -122 hlineto
          -71 callsubr
          435 691 rmoveto
          59 -1588 -59 630 vlineto
          323 callgsubr
          29 -2 vhcurveto
          -4 vlineto
          -29 -2 -16 -15 -35 vvcurveto
          -84 39 callgsubr
          -306 34 callgsubr
          376 hlineto
          13 10 1 3 9 hvcurveto
          -37 7 25 -17 44 hhcurveto
          107 hlineto
          93 callsubr
          -109 vlineto
          -53 24 -24 53 vhcurveto
          283 hlineto
          14 11 3 6 7 hvcurveto
          -50 100 256 92 vlineto
          -91 callgsubr
          301 -49 callsubr
          -91 78 hlineto
          endchar
        </CharString>
        <CharString name="dvC_MA">
          865 1324 485 rmoveto
          -214 78 214 hlineto
          -327 110 callsubr
          -1604 -59 1017 -78 -329 hlineto
          -94 callsubr
          -249 vlineto
          236 callsubr
          -297 34 callgsubr
          367 192 callgsubr
          10 10 hvcurveto
          -10 133 callsubr
        </CharString>
        <CharString name="dvC_NA">
          873 1012 168 -107 callgsubr
          581 196 rmoveto
          -1613 -59 1352 287 callgsubr
          -308 34 callgsubr
          378 153 callsubr
          210 -426 125 callgsubr
        </CharString>
        <CharString name="dvC_R">
          -220 -20 563 rmoveto
          520 59 -520 hlineto
          52 -196 rmoveto
          229 callgsubr
          170 168 rlineto
          38 40 -390 272 callsubr
          hlineto
          endchar
        </CharString>
        <CharString name="dvC_RA">
          144 864 7 callgsubr
          -884 -59 623 -380 hlineto
          -26 -8 -8 -26 vhcurveto
          -309 272 callsubr
          -59 229 callgsubr
          161 159 rlineto
          -100 -68 callsubr
        </CharString>
        <CharString name="dvC_YA">
          780 1240 175 -44 callsubr
          -1520 -59 910 75 callsubr
          -296 34 callgsubr
          366 22 callsubr
          -30 callsubr
        </CharString>
        <CharString name="dvCandrabindu">
          -700 -285 685 rmoveto
          344 hlineto
          54 23 26 52 hvcurveto
          89 -100 -77 -18 callsubr
          -236 -40 callsubr
          77 -100 -89 vlineto
          -52 24 -26 54 vhcurveto
          124 119 rmoveto
          94 94 -94 hlineto
          endchar
        </CharString>
        <CharString name="dvD">
          56 484 -61 69 callgsubr
          -618 683 rmoveto
          113 callgsubr
          382 191 callgsubr
          hlineto
          endchar
        </CharString>
        <CharString name="dvDA">
          56 619 142 callsubr
          -796 113 callgsubr
          endchar
        </CharString>
        <CharString name="dvDA_mvR">
          57 619 104 callsubr
          158 59 -797 -59 527 -78 -336 vlineto
          23 callgsubr
          266 callsubr
          -87 -162 vlineto
          252 callsubr
          314 59 -244 hlineto
          172 callgsubr
          205 325 -113 -95 hlineto
          13 callsubr
          endchar
        </CharString>
        <CharString name="dvDD">
          35 312 -61 69 callgsubr
          187 487 325 callsubr
          -777 -59 521 -78 -317 vlineto
          -94 callsubr
          213 callsubr
          -66 callgsubr
        </CharString>
        <CharString name="dvDDA">
          37 613 317 callsubr
          -777 -59 521 -78 -317 vlineto
          -94 callsubr
          213 callsubr
          -66 callgsubr
        </CharString>
        <CharString name="dvDDH">
          82 327 -61 69 callgsubr
          181 487 rmoveto
          137 180 59 -822 -59 529 -78 -320 vlineto
          -20 callsubr
          endchar
        </CharString>
        <CharString name="dvDDHA">
          82 622 104 callsubr
          180 59 -822 -59 529 -78 -320 vlineto
          -20 callsubr
          endchar
        </CharString>
        <CharString name="dvDDH_DDHA">
          89 651 104 callsubr
          158 59 -829 -59 559 -78 -350 vlineto
          -53 -25 19 callgsubr
          -189 vlineto
          -35 16 -16 142 callgsubr
          -16 -33 vvcurveto
          -190 vlineto
          -53 25 -24 53 vhcurveto
          411 hlineto
          53 25 24 53 hvcurveto
          57 -49 callsubr
          -110 -61 50 hlineto
          26 6 -7 -24 hvcurveto
          -30 42 callgsubr
          -284 3 callsubr
          170 -3 callsubr
          344 -101 callgsubr
          56 -49 callsubr
          -110 -61 50 26 callgsubr
          -29 -64 callgsubr
          -284 -40 callsubr
          170 vlineto
          26 6 7 26 vhcurveto
          endchar
        </CharString>
        <CharString name="dvDDH_R">
          83 337 -201 246 callgsubr
          170 627 rmoveto
          137 181 59 -823 -59 529 -78 -320 308 callgsubr
          134 hlineto
          -96 -164 330 callgsubr
          61 -129 270 callsubr
          -94 164 rlineto
          117 135 callsubr
        </CharString>
        <CharString name="dvDDH_RA">
          83 622 104 callsubr
          181 59 -823 -59 529 -78 -320 308 callgsubr
          123 112 callsubr
          107 135 callsubr
        </CharString>
        <CharString name="dvDDH_YA">
          1042 1501 175 149 callgsubr
          -464 hlineto
          -26 -6 188 callgsubr
          -595 78 879 hlineto
          168 callgsubr
          -1782 -59 529 -78 -320 hlineto
          -20 callsubr
          897 160 callsubr
        </CharString>
        <CharString name="dvDDHxA">
          82 371 -165 -2 callsubr
          251 491 rmoveto
          137 180 59 -822 -59 529 -78 -320 vlineto
          -20 callsubr
          endchar
        </CharString>
        <CharString name="dvDD_DDA">
          242 callgsubr
          -34 -93 callsubr
          312 hlineto
          -51 callsubr
          -39 -27 callsubr
          -243 138 callsubr
          31 -113 -45 299 callgsubr
          -21 -75 callgsubr
          312 hlineto
          -51 callsubr
          -42 42 callgsubr
          -243 3 callsubr
          24 -112 -37 282 callgsubr
          374 hlineto
          53 25 24 53 hvcurveto
          67 -49 callsubr
          -313 138 callsubr
          9 -84 callsubr
          310 95 callsubr
          64 vlineto
          269 callgsubr
          -313 203 callgsubr
          9 25 callsubr
          endchar
        </CharString>
        <CharString name="dvDD_DDHA">
          242 callgsubr
          -37 -93 callsubr
          313 26 callgsubr
          -43 -27 callsubr
          -244 138 callsubr
          31 -113 -43 vlineto
          -34 16 -16 30 -2 249 callsubr
          -1 -16 -16 -34 vvcurveto
          -179 282 callgsubr
          369 hlineto
          53 26 24 53 hvcurveto
          63 21 callsubr
          -108 -61 49 16 callsubr
          -36 -35 callsubr
          -245 -87 callgsubr
          163 -105 callsubr
          310 -101 callgsubr
          69 -49 callsubr
          -313 203 callgsubr
          12 25 callsubr
          endchar
        </CharString>
        <CharString name="dvDD_R">
          37 312 -200 246 callgsubr
          186 626 110 callgsubr
          110 hlineto
          -96 -164 330 callgsubr
          60 -129 270 callsubr
          -93 164 rlineto
          106 207 callsubr
        </CharString>
        <CharString name="dvDD_RA">
          37 613 426 110 callgsubr
          99 234 callsubr
          138 65 -138 270 callsubr
          -88 165 rlineto
          96 207 callsubr
        </CharString>
        <CharString name="dvDD_VA">
          48 250 -61 rmoveto
          -26 -6 -23 callgsubr
          92 -3 callsubr
          263 -120 hlineto
          -71 callsubr
          143 487 rmoveto
          137 146 59 -788 -59 529 -78 -324 vlineto
          -94 callsubr
          -52 40 callgsubr
          319 -73 callsubr
          -61 186 callgsubr
          -250 -40 callsubr
          40 -112 -46 vlineto
          -34 16 -18 30 -2 249 callsubr
          -1 -16 -14 -35 vvcurveto
          -112 vlineto
          -53 25 -24 53 vhcurveto
          293 hlineto
          14 11 3 6 7 hvcurveto
          -47 100 260 vlineto
          23 11 11 23 35 vvcurveto
          87 vlineto
          53 -25 24 -53 vhcurveto
          -318 hlineto
          -26 -5 7 26 hvcurveto
          27 298 callgsubr
        </CharString>
        <CharString name="dvDD_YA">
          998 1457 175 rmoveto
          334 callsubr
          -465 166 callgsubr
          -560 78 844 hlineto
          168 callgsubr
          -1738 -59 521 -78 -317 hlineto
          -94 callsubr
          -77 vlineto
          -53 25 -25 332 callgsubr
          -6 -26 hvcurveto
          -130 vlineto
          -26 -5 -5 342 callsubr
          83 -112 -95 -93 callsubr
          371 119 callgsubr
          vlineto
          53 -26 69 callsubr
          53 25 callsubr
          858 105 callgsubr
          532 hlineto
          17 12 4 9 7 hvcurveto
          -91 125 callgsubr
        </CharString>
        <CharString name="dvDDxA">
          37 353 -165 -2 callsubr
          260 491 325 callsubr
          -777 -59 521 -78 -317 vlineto
          -94 callsubr
          213 callsubr
          -66 callgsubr
        </CharString>
        <CharString name="dvDH">
          -33 251 137 rmoveto
          -89 callsubr
          665 59 hlineto
          endchar
        </CharString>
        <CharString name="dvDHA">
          335 1055 7 callgsubr
          -260 -451 hlineto
          -26 -8 -8 -26 vhcurveto
          -510 hlineto
          -89 callsubr
          139 callsubr
        </CharString>
        <CharString name="dvDH_MA">
          1055 1514 485 rmoveto
          -214 78 214 hlineto
          -326 137 callgsubr
          587 196 rmoveto
          -1068 -59 481 -78 -329 39 callsubr
          -237 39 callgsubr
          -495 hlineto
          -89 callsubr
          565 153 callsubr
          214 -29 callgsubr
        </CharString>
        <CharString name="dvDH_NA">
          1050 1188 49 callsubr
          -1069 -59 807 287 callgsubr
          -493 hlineto
          -89 callsubr
          563 153 callsubr
          210 -426 113 -83 callsubr
        </CharString>
        <CharString name="dvDH_N_YA">
          1689 1179 231 callgsubr
          322 hmoveto
          59 -653 vlineto
          155 callsubr
          -485 hlineto
          -89 callsubr
          555 22 callsubr
          363 -4 callgsubr
          vlineto
          860 -251 -44 callsubr
          -1713 -59 1103 hlineto
          -96 callsubr
        </CharString>
        <CharString name="dvDH_R">
          -26 251 149 rmoveto
          45 callgsubr
          99 20 callsubr
          6 26 hvcurveto
          130 21 callgsubr
          -103 99 115 245 callsubr
          -152 vlineto
          -35 16 -15 29 -2 vhcurveto
          -4 vlineto
          -29 -2 -16 -16 -34 vvcurveto
          -115 40 callgsubr
          464 hlineto
          -166 -149 rlineto
          143 hlineto
          173 164 rlineto
          35 44 hlineto
          endchar
        </CharString>
        <CharString name="dvDH_RA">
          335 1055 7 callgsubr
          -260 -439 306 callsubr
          99 20 callsubr
          6 26 hvcurveto
          130 21 callgsubr
          -103 99 115 245 callsubr
          -152 vlineto
          -35 16 -15 29 -2 vhcurveto
          -4 vlineto
          -29 -2 -16 -16 -34 vvcurveto
          -115 40 callgsubr
          459 hlineto
          -165 -149 rlineto
          147 hlineto
          169 160 rlineto
          -101 124 callsubr
        </CharString>
        <CharString name="dvDH_VA">
          730 1450 7 callgsubr
          -745 -59 484 -392 hlineto
          -16 callgsubr
          -237 vlineto
          -24 -8 -9 -26 vhcurveto
          -477 hlineto
          -89 callsubr
          547 89 callgsubr
          149 vlineto
          endchar
        </CharString>
        <CharString name="dvDH_YA">
          969 1428 175 rmoveto
          -28 -10 -10 -30 vhcurveto
          -465 -95 callsubr
          215 hlineto
          261 59 rmoveto
          -993 -59 383 75 callsubr
          -494 hlineto
          -89 callsubr
          564 hlineto
          25 17 5 11 11 hvcurveto
          -11 13 18 147 callsubr
          149 vlineto
          endchar
        </CharString>
        <CharString name="dvD_BA">
          77 492 14 rmoveto
          -246 138 callsubr
          25 vlineto
          48 -4 45 0 vhcurveto
          326 16 rmoveto
          -57 vlineto
          -27 1 -31 1 -18 vhcurveto
          -1 3 rlineto
          -5 0 -5 -1 -4 vhcurveto
          -264 144 rlineto
          370 246 rmoveto
          137 154 59 -817 -59 551 -78 -347 66 callsubr
          -142 vlineto
          -34 16 -16 30 -2 4 callsubr
          -122 -75 callgsubr
          321 hlineto
          14 11 3 6 7 hvcurveto
          -64 112 440 -112 -102 -288 vlineto
          174 callsubr
          124 -3 callsubr
          endchar
        </CharString>
        <CharString name="dvD_BHA">
          270 833 142 callsubr
          -1010 -59 742 -78 -336 vlineto
          -94 callsubr
          -211 -93 callsubr
          313 hlineto
          14 11 2 7 7 hvcurveto
          -127 112 268 -112 -58 vlineto
          -25 -1 -8 -8 -25 hhcurveto
          -246 -40 callsubr
          187 -3 callsubr
          -281 -241 rmoveto
          48 -19 28 -55 vhcurveto
          -74 -58 20 hlineto
          26 3 -9 -24 hvcurveto
          -237 99 67 475 59 -475 vlineto
          endchar
        </CharString>
        <CharString name="dvD_B_RA">
          80 512 23 rmoveto
          -264 138 callsubr
          19 vlineto
          58 -4 27 0 vhcurveto
          327 20 rmoveto
          -39 vlineto
          -49 3 -41 0 vhcurveto
          -290 129 rlineto
          393 247 rmoveto
          137 154 59 -820 -59 554 -78 -348 66 callsubr
          -144 8 callsubr
          -111 -75 callgsubr
          225 hlineto
          -127 -128 rlineto
          127 hlineto
          129 140 rlineto
          -76 113 427 -113 -90 -289 vlineto
          -26 -6 -23 callgsubr
          106 vlineto
          26 6 25 26 vhcurveto
          endchar
        </CharString>
        <CharString name="dvD_DA">
          177 736 104 callsubr
          161 59 -917 -59 644 -78 -434 66 callsubr
          -72 vlineto
          -34 16 -16 142 callgsubr
          -16 -34 vvcurveto
          -108 -75 callgsubr
          417 hlineto
          14 11 3 6 7 hvcurveto
          -69 113 217 -113 -64 vlineto
          -71 callsubr
          -350 -101 callsubr
          90 319 callgsubr
          59 -202 138 callsubr
          53 -105 callsubr
          endchar
        </CharString>
        <CharString name="dvD_DHA">
          289 154 124 rmoveto
          262 callsubr
          76 59 -131 hlineto
          169 callgsubr
          698 338 173 callsubr
          -1029 -59 760 -78 -335 vlineto
          -94 callsubr
          -198 -93 callsubr
          266 callsubr
          -140 112 298 -112 -74 339 callsubr
          -6 6 25 hvcurveto
          174 -3 callsubr
          endchar
        </CharString>
        <CharString name="dvD_GA">
          39 602 142 callsubr
          -779 -59 510 -78 -319 vlineto
          23 callgsubr
          28 -86 hlineto
          100 callsubr
          -29 -59 88 -101 callgsubr
          98 163 vlineto
          14 11 3 6 7 hvcurveto
          -226 113 405 301 callsubr
          -228 -98 callsubr
          endchar
        </CharString>
        <CharString name="dvD_GHA">
          289 852 142 callsubr
          -1029 -59 760 -78 -335 vlineto
          -94 callsubr
          -45 -198 vlineto
          169 callgsubr
          36 vlineto
          262 callsubr
          143 -94 67 callgsubr
          266 callsubr
          -140 112 298 -112 -74 339 callsubr
          -6 6 25 hvcurveto
          174 -3 callsubr
          endchar
        </CharString>
        <CharString name="dvD_G_RA">
          39 602 142 callsubr
          -779 -59 510 -78 -320 66 callsubr
          131 callgsubr
          28 -100 hlineto
          100 callsubr
          -29 -59 80 hlineto
          53 33 -78 callgsubr
          112 168 vlineto
          14 11 3 6 7 hvcurveto
          -73 vlineto
          -254 -223 rlineto
          131 hlineto
          82 73 rlineto
          28 25 19 21 0 0 -6 -38 -40 vvcurveto
          -51 107 485 -107 303 callgsubr
          -234 -106 callsubr
          endchar
        </CharString>
        <CharString name="dvD_MA">
          395 858 164 rmoveto
          -224 163 -111 -95 hlineto
          -71 callsubr
          -249 -101 callsubr
          166 -105 callsubr
          384 137 234 hlineto
          257 59 rmoveto
          -1135 -59 532 -78 -338 hlineto
          -94 callsubr
          -190 -93 callsubr
          317 hlineto
          14 11 3 6 7 hvcurveto
          -126 111 83 224 -134 109 592 17 callgsubr
        </CharString>
        <CharString name="dvD_NA">
          55 775 7 callgsubr
          -795 -59 536 -78 -345 hlineto
          -94 callsubr
          -238 40 callgsubr
          318 hlineto
          14 11 3 6 7 hvcurveto
          -85 -286 66 callsubr
          -56 109 44 -3 callsubr
          224 -96 107 388 -107 -64 hlineto
          -71 callsubr
          -250 203 callgsubr
          214 -3 callsubr
          391 137 147 hlineto
          endchar
        </CharString>
        <CharString name="dvD_R">
          57 518 -117 69 callgsubr
          -652 739 rmoveto
          -59 528 -78 -337 vlineto
          -94 callsubr
          20 callgsubr
          382 137 158 59 hlineto
          endchar
        </CharString>
        <CharString name="dvD_RA">
          57 619 104 callsubr
          158 59 -797 -59 528 -78 -337 vlineto
          -94 callsubr
          20 callgsubr
          endchar
        </CharString>
        <CharString name="dvD_VA">
          81 540 239 callsubr
          393 253 rmoveto
          137 155 59 -821 -59 554 -78 -347 vlineto
          -94 callsubr
          112 callgsubr
        </CharString>
        <CharString name="dvD_YA">
          292 751 147 163 callgsubr
          -463 -87 callgsubr
          79 185 callgsubr
          180 59 -180 -87 callgsubr
          50 -105 callsubr
          291 137 206 hlineto
          168 callgsubr
          -1032 -59 454 -78 -246 275 callsubr
          vlineto
          -35 16 -16 29 -1 vhcurveto
          -4 vlineto
          -29 -2 -16 -16 -34 vvcurveto
          -99 -93 callsubr
          531 hlineto
          14 11 3 6 7 hvcurveto
          -71 112 571 -42 callsubr
        </CharString>
        <CharString name="dvE">
          89 809 7 callgsubr
          -829 40 callsubr
        </CharString>
        <CharString name="dvEcandra">
          89 578 685 rmoveto
          -91 callgsubr
          89 -106 75 callgsubr
          576 -63 rmoveto
          -829 40 callsubr
        </CharString>
        <CharString name="dvEight">
          9 506 374 rmoveto
          -23 -7 -10 -25 vhcurveto
          -238 hlineto
          269 callsubr
          157 vlineto
          24 4 8 26 vhcurveto
          243 hlineto
          26 5 -8 -24 hvcurveto
          -440 vmoveto
          -26 -7 -6 -24 vhcurveto
          -243 hlineto
          -26 -4 8 24 hvcurveto
          158 vlineto
          24 7 9 24 vhcurveto
          241 hlineto
          25 7 -9 -24 hvcurveto
          109 294 rmoveto
          47 -21 32 -57 vhcurveto
          -367 hlineto
          -56 -21 -32 -47 hvcurveto
          -156 vlineto
          -47 16 -28 43 vhcurveto
          -4 vlineto
          -42 -17 -22 -47 hvcurveto
          -159 vlineto
          -48 21 -32 56 vhcurveto
          367 hlineto
          57 21 32 48 hvcurveto
          159 vlineto
          47 -17 22 -42 vhcurveto
          4 vlineto
          43 16 28 47 hvcurveto
          endchar
        </CharString>
        <CharString name="dvEyelash">
          -70 616 400 rmoveto
          -26 -54 callsubr
          -430 203 callgsubr
          40 -111 -53 -67 callgsubr
          559 -43 callsubr
          53 -113 vlineto
          -636 182 rmoveto
          -59 749 59 vlineto
          endchar
        </CharString>
        <CharString name="dvEyelash_HA">
          319 891 104 callsubr
          148 59 -1059 -59 799 -78 -326 66 callsubr
          -42 -219 vlineto
          -26 -6 7 25 hvcurveto
          40 -111 -52 -75 callgsubr
          295 hlineto
          -8 8 11 -5 15 hhcurveto
          187 callgsubr
          252 hlineto
          26 5 -7 -24 hvcurveto
          -92 109 101 vlineto
          333 callgsubr
          -310 -87 callgsubr
          40 -105 callsubr
          endchar
        </CharString>
        <CharString name="dvEyelash_YA">
          544 1003 47 callsubr
          -1284 -59 674 60 callgsubr
          -499 203 callgsubr
          40 -111 -53 -67 callgsubr
          263 -153 67 callgsubr
          535 hlineto
          17 12 4 9 7 hvcurveto
          -91 -68 callsubr
        </CharString>
        <CharString name="dvFive">
          32 222 391 rmoveto
          172 398 59 -510 -290 380 vlineto
          26 3 -8 -24 hvcurveto
          -209 vlineto
          -24 -3 -8 326 callgsubr
          -3 8 24 hvcurveto
          118 -113 -131 282 callsubr
          367 hlineto
          57 20 32 48 hvcurveto
          233 vlineto
          48 -20 30 -57 vhcurveto
          endchar
        </CharString>
        <CharString name="dvFour">
          25 659 179 rmoveto
          -113 147 -105 -147 -255 hlineto
          217 443 rlineto
          -111 hlineto
          -220 -438 rlineto
          -64 369 -120 105 120 113 vlineto
          endchar
        </CharString>
        <CharString name="dvG">
          38 221 137 rmoveto
          -64 callsubr
          247 485 rmoveto
          -778 -59 207 callgsubr
          vlineto
          endchar
        </CharString>
        <CharString name="dvGA">
          406 221 137 rmoveto
          -64 callsubr
          615 485 rmoveto
          -1146 -59 -66 callsubr
          211 130 callsubr
        </CharString>
        <CharString name="dvGH">
          -188 254 137 194 callsubr
          365 59 -639 -59 140 hlineto
          29 callgsubr
          490 59 hlineto
          endchar
        </CharString>
        <CharString name="dvGHA">
          194 653 171 163 callgsubr
          -365 65 callsubr
          399 hlineto
          168 callgsubr
          -934 -59 140 hlineto
          29 callgsubr
          432 22 callgsubr
        </CharString>
        <CharString name="dvGH_MA">
          924 1384 485 rmoveto
          -214 78 214 hlineto
          -327 -395 -107 callgsubr
          -407 -256 rmoveto
          27 callgsubr
          -362 65 callsubr
          803 246 callsubr
          -1664 -59 140 hlineto
          29 callgsubr
          431 182 callsubr
        </CharString>
        <CharString name="dvGH_NA">
          922 1381 485 rmoveto
          -652 hlineto
          -94 callsubr
          -237 -1 39 callgsubr
          -362 65 callsubr
          1127 hlineto
          -321 -395 -107 callgsubr
          582 196 rmoveto
          -1662 -59 140 hlineto
          29 callgsubr
          431 182 callgsubr
        </CharString>
        <CharString name="dvGH_R">
          -174 111 402 rmoveto
          261 callgsubr
          323 hlineto
          -154 -149 rlineto
          134 hlineto
          165 164 rlineto
          28 44 -430 -101 callsubr
          108 -84 callsubr
          197 59 -197 -87 callgsubr
          123 -84 callsubr
          291 59 -566 -59 141 hlineto
          -7 -5 -3 -10 -14 vvcurveto
          endchar
        </CharString>
        <CharString name="dvGH_RA">
          195 654 183 163 callgsubr
          -365 -101 callsubr
          108 -84 callsubr
          197 59 -197 -87 callgsubr
          123 -84 callsubr
          399 hlineto
          168 callgsubr
          -935 -59 141 hlineto
          -7 -5 -3 -10 -14 vvcurveto
          -132 vlineto
          261 callgsubr
          328 hlineto
          -155 -149 rlineto
          130 hlineto
          162 161 rlineto
          -102 -68 callsubr
        </CharString>
        <CharString name="dvGH_YA">
          840 1300 175 -103 callsubr
          -1046 -426 194 callsubr
          696 75 callsubr
          944 485 rmoveto
          -1580 -59 140 hlineto
          29 callgsubr
          431 22 callsubr
          -30 callsubr
        </CharString>
        <CharString name="dvG_BA">
          869 974 230 callsubr
          -1073 hmoveto
          -64 callsubr
          1078 485 rmoveto
          -1609 -59 -66 callsubr
          674 -250 vlineto
          290 callsubr
          -366 249 rlineto
          316 59 -375 hlineto
          -53 -25 -25 -53 hvcurveto
          92 callsubr
        </CharString>
        <CharString name="dvG_BHA">
          1145 97 callgsubr
          1300 -455 33 callgsubr
          586 311 rmoveto
          -261 -252 -213 174 hlineto
          -32 callsubr
          213 -311 -68 callsubr
        </CharString>
        <CharString name="dvG_BH_YA">
          1746 37 callsubr
          2225 -447 rmoveto
          -28 -10 -10 -30 vhcurveto
          -448 -101 callsubr
          143 236 vlineto
          -91 callgsubr
          145 -45 callgsubr
          215 hlineto
          -946 -396 rmoveto
          -24 -5 159 callsubr
          -6 7 24 hvcurveto
          112 30 callsubr
          268 hlineto
          1207 311 rmoveto
          -966 -59 356 -73 callsubr
          -130 186 callgsubr
          -484 174 hlineto
          -19 callgsubr
          -362 39 callsubr
          -99 113 87 115 callgsubr
          5 -6 -25 hvcurveto
          -162 177 callgsubr
          -136 -58 callsubr
          155 201 -155 -93 callsubr
          518 hlineto
          17 12 4 9 7 hvcurveto
          -91 -68 callsubr
        </CharString>
        <CharString name="dvG_DA">
          795 221 137 rmoveto
          -64 callsubr
          847 289 173 callsubr
          -1535 -59 562 259 callgsubr
          vlineto
          -94 callsubr
          -192 -31 callsubr
          592 -78 -336 vlineto
          -53 -25 -25 -53 hvcurveto
          -251 -26 callsubr
        </CharString>
        <CharString name="dvG_DHA">
          1096 97 callgsubr
          1836 hmoveto
          -260 -451 hlineto
          -26 -8 -8 -26 vhcurveto
          -510 hlineto
          -89 callsubr
          139 callsubr
        </CharString>
        <CharString name="dvG_DH_VA">
          1479 37 callsubr
          2219 hmoveto
          -736 -59 475 -392 hlineto
          -16 callgsubr
          -237 vlineto
          -24 -8 -9 -26 vhcurveto
          -484 hlineto
          -89 callsubr
          554 89 callgsubr
          149 vlineto
          endchar
        </CharString>
        <CharString name="dvG_DH_YA">
          1682 37 callsubr
          2161 -447 167 callgsubr
          -940 -59 330 294 callgsubr
          -198 202 callsubr
          -482 hlineto
          -89 callsubr
          552 80 callsubr
          274 callgsubr
        </CharString>
        <CharString name="dvG_GA">
          1146 961 137 rmoveto
          -64 callsubr
          -1030 hmoveto
          -64 callsubr
          1355 485 rmoveto
          -1886 -59 -66 callsubr
          628 259 callgsubr
          vlineto
          -94 callsubr
          -192 -31 callsubr
          211 130 callsubr
        </CharString>
        <CharString name="dvG_GHA">
          932 1392 171 163 callgsubr
          -365 65 callsubr
          399 hlineto
          -1171 -426 rmoveto
          -64 callsubr
          1142 485 rmoveto
          -1673 -59 -66 callsubr
          205 vlineto
          29 callgsubr
          432 22 callgsubr
        </CharString>
        <CharString name="dvG_JA">
          1116 221 137 rmoveto
          -64 callsubr
          1325 485 rmoveto
          -1856 -59 -66 callsubr
          921 -78 -321 -317 vlineto
          -86 callsubr
          211 120 callgsubr
          vlineto
          endchar
        </CharString>
        <CharString name="dvG_LA">
          1178 221 137 rmoveto
          -64 callsubr
          1387 485 rmoveto
          -1918 -59 -66 callsubr
          982 -78 -284 vlineto
          -32 -13 -14 -25 -5 hvcurveto
          -4 hlineto
          10 callsubr
          -310 hlineto
          -94 callsubr
          -329 -55 callsubr
        </CharString>
        <CharString name="dvG_MA">
          1123 1583 485 rmoveto
          -214 78 214 hlineto
          -327 -395 -107 callgsubr
          -1035 -289 rmoveto
          -64 callsubr
          1332 485 rmoveto
          -1863 -59 -66 callsubr
          602 -78 -329 vlineto
          -53 -25 -25 -53 hvcurveto
          -251 8 callgsubr
        </CharString>
        <CharString name="dvG_NA">
          1093 1231 168 -107 callgsubr
          -1010 -289 rmoveto
          -64 callsubr
          1302 485 rmoveto
          -1833 -59 -66 callsubr
          898 -78 -652 vlineto
          -53 -25 -25 -53 hvcurveto
          -251 vlineto
          -53 25 -25 53 vhcurveto
          -43 callgsubr
        </CharString>
        <CharString name="dvG_NNA">
          1133 1255 168 -14 callgsubr
          -1034 -426 rmoveto
          -64 callsubr
          1342 485 rmoveto
          -1873 -59 -66 callsubr
          196 208 callgsubr
        </CharString>
        <CharString name="dvG_N_YA">
          1774 1265 168 -107 callgsubr
          320 hmoveto
          59 -651 66 callsubr
          131 callgsubr
          363 95 callsubr
          270 vlineto
          860 -251 -103 callsubr
          -2013 -426 rmoveto
          -64 callsubr
          1983 485 rmoveto
          -2514 -59 -66 callsubr
          1230 vlineto
          -96 callsubr
        </CharString>
        <CharString name="dvG_R">
          98 callgsubr
          240 89 rmoveto
          -330 -320 rlineto
          134 hlineto
          246 254 rlineto
          endchar
        </CharString>
        <CharString name="dvG_RA">
          402 219 145 63 callgsubr
        </CharString>
        <CharString name="dvG_R_YA">
          1031 1491 175 -103 callsubr
          -1272 -418 74 callsubr
          1242 477 rmoveto
          -1771 56 callsubr
          398 491 vlineto
          -81 callsubr
          -162 hlineto
          -281 -272 rlineto
          134 hlineto
          162 167 rlineto
          -15 13 21 -8 29 hhcurveto
          -30 callsubr
        </CharString>
        <CharString name="dvG_SA">
          1136 1595 339 rmoveto
          -223 hlineto
          -81 callgsubr
          232 hlineto
          -1374 -426 rmoveto
          -64 callsubr
          1346 485 rmoveto
          -1877 -59 -66 callsubr
          575 vlineto
          -100 callgsubr
          632 -280 112 563 150 vlineto
          endchar
        </CharString>
        <CharString name="dvG_VA">
          808 221 137 rmoveto
          -64 callsubr
          1017 485 rmoveto
          -1548 -59 -66 callsubr
          614 -392 vlineto
          -63 callgsubr
          -299 39 callsubr
          -251 -38 callsubr
        </CharString>
        <CharString name="dvG_YA">
          1004 1464 175 -103 callsubr
          -1243 -426 rmoveto
          -64 callsubr
          1213 485 rmoveto
          -1744 -59 -66 callsubr
          460 vlineto
          -96 callsubr
        </CharString>
        <CharString name="dvGx">
          38 309 -87 -2 callsubr
          -88 124 rmoveto
          -64 callsubr
          247 485 rmoveto
          -778 -59 562 259 callgsubr
          217 callsubr
          -191 -31 callsubr
          104 vlineto
          endchar
        </CharString>
        <CharString name="dvGxA">
          406 312 -87 -2 callsubr
          -91 124 rmoveto
          -64 callsubr
          615 485 rmoveto
          -1146 -59 -66 callsubr
          211 130 callsubr
        </CharString>
        <CharString name="dvGx_R">
          98 callgsubr
          290 23 rmoveto
          -50 66 -330 -320 rlineto
          134 hlineto
          -36 -182 -2 callsubr
          endchar
        </CharString>
        <CharString name="dvGx_RA">
          347 667 -248 -2 callsubr
          -448 293 63 callgsubr
        </CharString>
        <CharString name="dvH">
          55 895 265 rmoveto
          59 -634 vlineto
          -26 -5 -23 callgsubr
          40 -105 callsubr
          373 137 252 59 -906 -59 542 -78 -326 39 callsubr
          -62 vlineto
          -34 16 -17 30 -1 vhcurveto
          187 callgsubr
          endchar
        </CharString>
        <CharString name="dvHA">
          243 callsubr
          83 callsubr
          -159 -11 callgsubr
        </CharString>
        <CharString name="dvHA_mU">
          65 636 426 rmoveto
          137 149 59 -805 -59 545 -78 -329 vlineto
          219 callsubr
          326 hlineto
          26 8 -9 -24 hvcurveto
          -97 39 callgsubr
          -190 hlineto
          -23 -7 8 20 -12 hvcurveto
          -43 73 rlineto
          -120 hlineto
          59 -96 rlineto
          -58 35 21 -6 70 hhcurveto
          279 hlineto
          53 22 22 53 hvcurveto
          131 vlineto
          53 -22 22 -53 vhcurveto
          -330 -101 callsubr
          134 -84 callsubr
          254 hlineto
          26 6 -7 -24 hvcurveto
          -91 108 100 vlineto
          55 -27 26 -54 vhcurveto
          -313 -87 callgsubr
          40 -105 callsubr
          endchar
        </CharString>
        <CharString name="dvHA_mUU">
          65 667 5 rmoveto
          59 -35 -21 5 -70 hhcurveto
          -280 -101 callsubr
          134 -84 callsubr
          254 hlineto
          26 6 -7 -24 hvcurveto
          -92 108 101 vlineto
          55 -27 26 -54 vhcurveto
          -313 -87 callgsubr
          40 -105 callsubr
          375 197 callsubr
          hlineto
          219 callsubr
          16 hlineto
          -1 -5 0 -5 -6 vvcurveto
          168 callsubr
          121 hlineto
          endchar
        </CharString>
        <CharString name="dvHA_mvR">
          243 callsubr
          -59 8 callsubr
          -187 vlineto
          -53 26 -29 53 vhcurveto
          457 59 -392 hlineto
          -26 -5 9 26 hvcurveto
          172 -84 callsubr
          263 hlineto
          13 14 -5 -15 hvcurveto
          -23 -42 -38 -39 vvcurveto
          -39 25 -15 45 vhcurveto
          91 56 -34 hlineto
          -13 -6 4 8 hvcurveto
          23 43 40 40 vvcurveto
          48 -34 14 -44 vhcurveto
          -321 -87 callgsubr
          37 -105 callsubr
          endchar
        </CharString>
        <CharString name="dvH_LA">
          184 746 104 callsubr
          158 59 -924 -59 653 -78 -437 66 callsubr
          -42 8 callsubr
          -265 -67 callgsubr
          570 59 -505 -87 callgsubr
          250 -84 callsubr
          386 hlineto
          26 6 -7 -24 hvcurveto
          -10 -96 vlineto
          -24 -9 -9 -16 -5 hvcurveto
          -4 hlineto
          18 -4 -12 7 -28 hhcurveto
          -121 hlineto
          -40 -19 -18 -39 hvcurveto
          -113 vlineto
          -41 19 -19 40 vhcurveto
          109 55 -59 hlineto
          -20 -4 4 20 hvcurveto
          73 vlineto
          19 4 4 20 vhcurveto
          50 hlineto
          20 4 -4 -19 hvcurveto
          -62 86 62 vlineto
          19 4 4 19 vhcurveto
          70 -175 96 249 hlineto
          333 callgsubr
          -432 -87 callgsubr
          20 -105 callsubr
          endchar
        </CharString>
        <CharString name="dvH_MA">
          430 889 244 rmoveto
          -234 9 hlineto
          55 -27 26 -54 vhcurveto
          -313 -87 callgsubr
          30 -105 callsubr
          375 137 253 hlineto
          168 callgsubr
          -1170 -59 545 -78 -329 39 callsubr
          -52 8 callsubr
          -169 -67 callgsubr
          455 59 -390 -101 callsubr
          154 -84 callsubr
          254 hlineto
          26 6 -7 -24 hvcurveto
          -112 108 53 234 -185 -68 callsubr
        </CharString>
        <CharString name="dvH_NA">
          79 642 142 callsubr
          -819 -59 550 -78 -334 66 callsubr
          -52 8 callsubr
          -238 -67 callgsubr
          461 59 -396 -101 callsubr
          223 -84 callsubr
          278 hlineto
          26 6 -7 -24 hvcurveto
          -45 -161 vlineto
          -94 callsubr
          -53 99 40 vlineto
          26 7 -85 callsubr
          107 -85 99 198 hlineto
          333 callgsubr
          -327 -87 callgsubr
          30 -105 callsubr
          endchar
        </CharString>
        <CharString name="dvH_NNA">
          172 496 180 rmoveto
          -15 -3 -3 -15 vhcurveto
          -66 hlineto
          -14 -3 3 15 hvcurveto
          105 101 vlineto
          238 141 rmoveto
          137 158 59 -912 -59 641 -78 -425 66 callsubr
          -42 8 callsubr
          -179 -67 callgsubr
          556 59 -491 -101 callsubr
          164 -84 callsubr
          54 -123 hlineto
          -40 19 -19 39 vhcurveto
          144 hlineto
          39 20 19 40 hvcurveto
          123 51 vlineto
          26 6 -7 -24 hvcurveto
          -109 103 118 vlineto
          333 callgsubr
          -419 -87 callgsubr
          20 -105 callsubr
          endchar
        </CharString>
        <CharString name="dvH_RA">
          81 654 104 callsubr
          147 59 -821 -59 562 -78 -346 66 callsubr
          -61 299 callgsubr
          -160 -67 callgsubr
          470 59 -405 -101 callsubr
          145 -84 callsubr
          211 hlineto
          -106 -143 rlineto
          97 hlineto
          95 136 rlineto
          4 -4 1 -8 -12 vvcurveto
          -100 109 110 vlineto
          54 -28 26 -54 vhcurveto
          -329 138 callsubr
          38 -105 callsubr
          endchar
        </CharString>
        <CharString name="dvH_VA">
          105 670 104 callsubr
          155 59 -845 -59 578 -78 -362 66 callsubr
          -41 vlineto
          -34 16 -18 30 -1 vhcurveto
          -3 vlineto
          -30 -2 -16 -15 -35 vvcurveto
          -230 -67 callgsubr
          492 59 -427 hlineto
          -26 -5 14 25 hvcurveto
          206 185 callgsubr
          312 hlineto
          26 5 -7 -25 hvcurveto
          -117 vlineto
          -20 -5 -6 -20 vhcurveto
          -179 hlineto
          -20 -4 4 20 hvcurveto
          35 vlineto
          20 4 4 20 vhcurveto
          171 44 -209 hlineto
          -41 -19 -18 -41 hvcurveto
          -54 vlineto
          -39 19 -20 41 vhcurveto
          218 hlineto
          11 8 2 5 5 hvcurveto
          -31 82 222 vlineto
          55 -26 26 -55 vhcurveto
          -344 -87 callgsubr
          19 -105 callsubr
          endchar
        </CharString>
        <CharString name="dvH_YA">
          430 889 222 163 callgsubr
          -206 hlineto
          6 5 3 9 15 vvcurveto
          43 vlineto
          333 callgsubr
          -315 -87 callgsubr
          23 -105 callsubr
          378 137 250 hlineto
          168 callgsubr
          -1170 -59 547 -78 -331 39 callsubr
          -45 8 callsubr
          -176 -67 callgsubr
          460 59 -395 -101 callsubr
          161 -84 callsubr
          257 hlineto
          26 6 -7 -24 hvcurveto
          -32 -64 callgsubr
          -109 -59 448 hlineto
          14 11 3 6 7 hvcurveto
          -138 -68 callsubr
        </CharString>
        <CharString name="dvI">
          52 649 104 callsubr
          123 59 -792 87 callgsubr
        </CharString>
        <CharString name="dvII">
          53 651 104 callsubr
          123 59 -171 110 -3 callsubr
          111 59 -177 hlineto
          -94 callsubr
          -122 -509 87 callgsubr
        </CharString>
        <CharString name="dvII_Anusvara">
          53 650 104 callsubr
          123 59 -200 138 vlineto
          24 8 9 26 vhcurveto
          157 59 -229 326 callsubr
          -155 -478 -59 556 -78 -358 vlineto
          -94 callsubr
          -64 -93 callsubr
          334 -73 callsubr
          -66 -35 callsubr
          -293 53 -115 -190 115 78 358 -43 callsubr
          90 21 callsubr
          -333 3 callsubr
          40 25 callsubr
          496 234 rmoveto
          93 -92 -93 vlineto
          endchar
        </CharString>
        <CharString name="dvJ">
          13 871 7 callgsubr
          -891 -59 891 hlineto
          16 -78 rmoveto
          -36 callsubr
          264 vlineto
          endchar
        </CharString>
        <CharString name="dvJA">
          375 1095 7 callgsubr
          -1115 -59 854 -78 -321 -69 callsubr
          211 120 callgsubr
          vlineto
          endchar
        </CharString>
        <CharString name="dvJH">
          19 884 331 rmoveto
          -638 hlineto
          97 callsubr
          211 59 -884 11 callsubr
          230 hlineto
          endchar
        </CharString>
        <CharString name="dvJHA">
          401 860 331 rmoveto
          -614 hlineto
          97 callsubr
          207 hlineto
          168 callgsubr
          -1141 -59 562 -78 227 callgsubr
          236 callgsubr
          329 hlineto
          26 7 -6 -26 hvcurveto
          -72 vlineto
          -26 -7 5 callgsubr
          -298 53 -114 -190 114 78 365 95 callsubr
          97 235 callsubr
          208 -272 125 callsubr
        </CharString>
        <CharString name="dvJH_MA">
          1141 1601 485 rmoveto
          -214 78 214 hlineto
          -327 -395 -107 callgsubr
          -407 -95 rmoveto
          -621 hlineto
          97 callsubr
          621 246 callsubr
          -1881 11 callsubr
          213 -116 hlineto
          0 callsubr
        </CharString>
        <CharString name="dvJH_NA">
          1120 1580 485 rmoveto
          -652 hlineto
          -94 callsubr
          -76 -604 vlineto
          97 callsubr
          927 hlineto
          -321 -395 -107 callgsubr
          582 196 rmoveto
          -1861 11 callsubr
          196 -116 hlineto
          -53 25 -25 53 vhcurveto
          -43 callgsubr
        </CharString>
        <CharString name="dvJH_R">
          44 654 253 rmoveto
          185 callsubr
          267 59 -674 286 callgsubr
          110 59 -784 133 callgsubr
          253 53 rmoveto
          -310 -275 rlineto
          137 hlineto
          211 203 rlineto
          endchar
        </CharString>
        <CharString name="dvJH_RA">
          409 871 331 rmoveto
          -625 286 callgsubr
          217 hlineto
          258 59 rmoveto
          -1149 133 callgsubr
          97 vlineto
          7 0 6 -1 6 vhcurveto
          218 -93 hlineto
          -274 -245 rlineto
          137 hlineto
          143 141 rlineto
          0 -4 -28 -48 vvcurveto
          -26 108 319 callsubr
        </CharString>
        <CharString name="dvJH_YA">
          1052 1512 175 -103 callsubr
          -650 -232 rmoveto
          -616 hlineto
          97 callsubr
          509 hlineto
          -81 callsubr
          hlineto
          910 254 rmoveto
          -1792 11 callsubr
          208 -116 147 callgsubr
        </CharString>
        <CharString name="dvJ_BA">
          853 958 230 callsubr
          295 485 rmoveto
          -1593 -59 1332 273 callgsubr
          -8 0 -36 callsubr
          195 vlineto
          68 callgsubr
        </CharString>
        <CharString name="dvJ_DA">
          774 1337 142 callsubr
          -1514 -59 1245 -78 -336 vlineto
          -2 0 -36 callsubr
          189 vlineto
          -42 callgsubr
          -251 -26 callsubr
        </CharString>
        <CharString name="dvJ_DDA">
          743 1320 317 callsubr
          -1484 -59 1228 -78 -317 vlineto
          -4 0 -36 callsubr
          191 82 callgsubr
        </CharString>
        <CharString name="dvJ_JA">
          1096 1816 7 callgsubr
          -1836 -59 1575 54 callgsubr
          -428 -317 vlineto
          -86 callsubr
          208 -270 -93 callsubr
          161 callsubr
        </CharString>
        <CharString name="dvJ_JHA">
          1118 1577 331 rmoveto
          -614 3 callsubr
          33 vlineto
          26 6 257 callgsubr
          207 hlineto
          168 callgsubr
          -1858 -59 1279 -78 -746 -69 callsubr
          197 vlineto
          -42 callgsubr
          236 callgsubr
          329 hlineto
          26 7 -6 -26 hvcurveto
          -72 vlineto
          -26 -7 5 callgsubr
          -298 53 -114 -190 114 78 365 95 callsubr
          97 235 callsubr
          208 -272 125 callsubr
        </CharString>
        <CharString name="dvJ_J_NYA">
          1075 1796 7 callgsubr
          -1816 -59 1554 -78 -645 hlineto
          -2 0 -36 callsubr
          189 vlineto
          -42 callgsubr
          87 callsubr
        </CharString>
        <CharString name="dvJ_J_VA">
          1501 2221 7 callgsubr
          -2241 -59 1981 -392 hlineto
          -63 callgsubr
          -677 -317 hlineto
          -69 callgsubr
          -229 -101 callsubr
          317 -429 -317 vlineto
          -86 callsubr
          208 -270 -67 callgsubr
          356 -4 callgsubr
          190 vlineto
          -42 callgsubr
          -251 -38 callsubr
        </CharString>
        <CharString name="dvJ_J_YA">
          1747 1555 485 rmoveto
          -321 -317 hlineto
          -69 callgsubr
          -229 -101 callsubr
          317 -429 -317 vlineto
          -86 callsubr
          208 -270 -67 callgsubr
          356 -4 callgsubr
          211 vlineto
          652 -251 -44 callsubr
          -2487 -59 1877 hlineto
          -96 callsubr
        </CharString>
        <CharString name="dvJ_KA">
          1105 1825 563 rmoveto
          59 -1845 -59 1228 -392 vlineto
          -98 callgsubr
          -6 0 -36 callsubr
          193 vlineto
          -56 callsubr
        </CharString>
        <CharString name="dvJ_MA">
          1087 1547 485 rmoveto
          -214 78 214 hlineto
          -327 110 callsubr
          -1827 -59 1240 -78 -329 hlineto
          -4 0 -36 callsubr
          191 vlineto
          -42 callgsubr
          -251 8 callgsubr
        </CharString>
        <CharString name="dvJ_NA">
          1076 1214 49 callsubr
          -1816 -59 1555 -78 -1022 -69 callsubr
          183 vlineto
          -42 callgsubr
          -251 vlineto
          -53 25 -25 53 vhcurveto
          -43 callgsubr
        </CharString>
        <CharString name="dvJ_NY">
          11 855 7 callgsubr
          -875 -59 875 hlineto
          23 -137 rmoveto
          59 -690 vlineto
          -94 callsubr
          109 callgsubr
          endchar
        </CharString>
        <CharString name="dvJ_NYA">
          375 1095 7 callgsubr
          -1115 -59 853 -78 -645 hlineto
          -94 callsubr
          87 callsubr
        </CharString>
        <CharString name="dvJ_NY_YA">
          997 254 321 rmoveto
          264 callgsubr
          577 59 -643 hlineto
          -94 callsubr
          34 callsubr
          934 -146 -44 callsubr
          -1759 -59 1149 hlineto
          -96 callsubr
        </CharString>
        <CharString name="dvJ_R">
          323 callsubr
          -106 -137 rmoveto
          285 59 -395 59 callgsubr
          255 77 rmoveto
          -348 -308 rlineto
          138 hlineto
          246 234 rlineto
          endchar
        </CharString>
        <CharString name="dvJ_RA">
          373 1093 7 callgsubr
          -1113 -59 854 -78 -322 59 callgsubr
          261 212 -219 170 callgsubr
          -5 262 callgsubr
        </CharString>
        <CharString name="dvJ_TA">
          805 1526 7 callgsubr
          -1546 -59 1285 -78 -373 hlineto
          -5 0 -36 callsubr
          192 vlineto
          -42 callgsubr
          -329 -46 callgsubr
        </CharString>
        <CharString name="dvJ_TTA">
          764 1327 142 callsubr
          -1504 -59 1235 -78 -319 vlineto
          -9 0 -36 callsubr
          195 vlineto
          -42 callgsubr
          -329 -67 callsubr
        </CharString>
        <CharString name="dvJ_VA">
          804 1524 7 callgsubr
          -1544 -59 1284 -392 hlineto
          -63 callgsubr
          -701 -69 callsubr
          214 vlineto
          -42 callgsubr
          -251 -38 callsubr
        </CharString>
        <CharString name="dvJ_YA">
          1030 840 426 rmoveto
          59 -327 -317 vlineto
          -86 callsubr
          vlineto
          866 -251 -53 callgsubr
          -1770 -59 1160 46 callgsubr
        </CharString>
        <CharString name="dvJx">
          11 869 7 callgsubr
          -889 -59 889 hlineto
          -561 -650 -2 callsubr
          579 472 rmoveto
          -36 callsubr
          264 vlineto
          endchar
        </CharString>
        <CharString name="dvJxA">
          375 301 -87 -2 callsubr
          794 609 rmoveto
          -1115 -59 854 -78 -321 -69 callsubr
          211 120 callgsubr
          vlineto
          endchar
        </CharString>
        <CharString name="dvJx_JxA">
          1098 308 -87 -2 callsubr
          714 -100 -2 callsubr
          796 609 rmoveto
          -1838 -59 1577 54 callgsubr
          -430 -317 vlineto
          -86 callsubr
          210 -270 -93 callsubr
          161 callsubr
        </CharString>
        <CharString name="dvJx_R">
          323 callsubr
          -437 -661 -2 callsubr
          331 424 rmoveto
          285 59 -395 59 callgsubr
          255 77 rmoveto
          -348 -308 rlineto
          138 hlineto
          246 234 rlineto
          endchar
        </CharString>
        <CharString name="dvJx_RA">
          362 281 -135 -2 callsubr
          812 657 rmoveto
          -1113 -59 854 -78 -322 59 callgsubr
          261 212 -219 170 callgsubr
          -5 262 callgsubr
        </CharString>
        <CharString name="dvJx_YA">
          1028 306 -115 -2 callsubr
          532 441 rmoveto
          59 -325 -317 vlineto
          -86 callsubr
          vlineto
          865 -251 14 callgsubr
          205 callgsubr
          -1768 -59 1159 221 callgsubr
          279 callsubr
          535 hlineto
          17 12 4 9 7 hvcurveto
          -91 124 callsubr
        </CharString>
        <CharString name="dvK">
          42 630 485 177 callsubr
          251 59 -869 -93 callgsubr
          271 59 hlineto
          endchar
        </CharString>
        <CharString name="dvKA">
          383 1103 563 rmoveto
          59 -1123 -59 506 -392 vlineto
          -26 -8 -8 -26 vhcurveto
          -215 hlineto
          -26 -6 6 25 hvcurveto
          227 vlineto
          25 6 6 26 vhcurveto
          199 59 -265 hlineto
          -53 -25 -25 -53 hvcurveto
          -50 callgsubr
        </CharString>
        <CharString name="dvKH">
          328 223 239 rmoveto
          265 hlineto
          81 callgsubr
          528 59 -1114 -59 475 -234 vlineto
          24 callgsubr
          -392 148 callgsubr
          620 88 rmoveto
          -5 callgsubr
          399 58 hlineto
          endchar
        </CharString>
        <CharString name="dvKHA">
          675 1394 622 50 callsubr
        </CharString>
        <CharString name="dvKH_KHA">
          1701 2420 7 callgsubr
          -2440 -79 callgsubr
          915 -234 vlineto
          24 callgsubr
          -258 202 callsubr
          -259 -40 callsubr
          171 vlineto
          26 6 5 103 callgsubr
          -24 -53 hvcurveto
          -196 79 callsubr
          321 hlineto
          12 166 callsubr
          -45 vlineto
          128 callgsubr
          569 -347 vlineto
          -28 -11 -10 -28 vhcurveto
          -253 hlineto
          -5 callgsubr
          314 122 callsubr
          -134 111 19 callsubr
        </CharString>
        <CharString name="dvKH_MA">
          1409 1868 485 9 callgsubr
        </CharString>
        <CharString name="dvKH_NA">
          1425 1563 231 callgsubr
          582 196 rmoveto
          -2165 -79 callgsubr
          1318 -78 -652 vlineto
          -94 callsubr
          -195 vlineto
          -24 -8 -10 -26 vhcurveto
          -277 hlineto
          -5 callgsubr
          339 hlineto
          14 11 2 3 9 hvcurveto
          -32 9 24 -15 41 153 callgsubr
        </CharString>
        <CharString name="dvKH_R">
          116 callsubr
          620 90 123 callsubr
        </CharString>
        <CharString name="dvKH_RA">
          675 1394 7 callgsubr
          -1414 -59 475 -233 96 callgsubr
          -201 171 -113 -392 2 callgsubr
        </CharString>
        <CharString name="dvKH_SHA">
          1416 223 239 rmoveto
          265 hlineto
          81 callgsubr
          346 59 -932 2 callsubr
        </CharString>
        <CharString name="dvKH_TA">
          1109 1829 7 callgsubr
          -1849 -79 callgsubr
          1002 -78 -372 103 callsubr
          198 -76 callsubr
          307 279 callgsubr
        </CharString>
        <CharString name="dvKH_VA">
          1101 1821 7 callgsubr
          -1841 -79 callgsubr
          995 -392 vlineto
          -16 callgsubr
          -207 vlineto
          236 callsubr
          -33 callsubr
          13 11 1 3 9 hvcurveto
          -31 321 callgsubr
          317 215 callgsubr
        </CharString>
        <CharString name="dvKH_YA">
          1325 1784 47 callsubr
          -2065 -79 callgsubr
          869 vlineto
          -81 callsubr
          -156 202 callsubr
          -33 callsubr
          14 11 2 3 9 hvcurveto
          -32 9 24 -15 41 170 callsubr
          149 vlineto
          endchar
        </CharString>
        <CharString name="dvKHx">
          326 452 -165 -2 callsubr
          -229 304 rmoveto
          265 hlineto
          81 callgsubr
          526 59 -1112 -59 475 -234 vlineto
          24 callgsubr
          -392 148 callgsubr
          620 88 rmoveto
          -5 callgsubr
          397 58 hlineto
          endchar
        </CharString>
        <CharString name="dvKHxA">
          675 495 -165 -2 callsubr
          899 687 50 callsubr
        </CharString>
        <CharString name="dvKHx_MA">
          1409 156 callgsubr
          1416 554 9 callgsubr
        </CharString>
        <CharString name="dvKHx_R">
          116 callsubr
          730 -325 -2 callsubr
          -110 315 123 callsubr
        </CharString>
        <CharString name="dvKHx_RA">
          639 927 -235 -2 callsubr
          467 757 rmoveto
          -1414 -59 475 -233 96 callgsubr
          -201 171 -113 -392 2 callgsubr
        </CharString>
        <CharString name="dvKHx_SA">
          1420 156 callgsubr
          1427 408 rmoveto
          -223 hlineto
          -81 callgsubr
          232 hlineto
          262 59 rmoveto
          -2161 -79 callgsubr
          947 vlineto
          -55 callgsubr
          -113 -276 123 callgsubr
          26 -25 53 vhcurveto
          365 hlineto
          53 25 25 53 hvcurveto
          136 -112 -124 -64 callgsubr
          27 callsubr
          6 25 hvcurveto
          190 632 -280 112 563 150 vlineto
          endchar
        </CharString>
        <CharString name="dvKHx_SHA">
          1416 156 callgsubr
          -229 308 rmoveto
          265 hlineto
          81 callgsubr
          349 59 -935 2 callsubr
        </CharString>
        <CharString name="dvKHx_TA">
          1109 156 callgsubr
          1377 691 rmoveto
          -1849 -79 callgsubr
          1003 -78 -373 103 callsubr
          199 59 -134 -103 callgsubr
          308 280 callgsubr
          hlineto
          endchar
        </CharString>
        <CharString name="dvKHx_VA">
          1102 156 callgsubr
          1370 691 rmoveto
          -1842 -79 callgsubr
          995 -392 vlineto
          -16 callgsubr
          -207 vlineto
          236 callsubr
          -33 callsubr
          13 11 1 3 9 hvcurveto
          -31 321 callgsubr
          317 22 callgsubr
        </CharString>
        <CharString name="dvKHx_YA">
          1325 156 callgsubr
          1332 244 -53 callgsubr
          -2065 -79 callgsubr
          869 vlineto
          -81 callsubr
          -156 202 callsubr
          -33 callsubr
          14 11 2 3 9 hvcurveto
          -32 9 24 -15 41 170 callsubr
          149 vlineto
          endchar
        </CharString>
        <CharString name="dvK_CA">
          878 1338 171 163 callgsubr
          -310 -101 callsubr
          227 vlineto
          24 5 7 25 vhcurveto
          157 59 -520 -47 callsubr
          740 vlineto
          205 callgsubr
          -1618 -104 callgsubr
          228 hlineto
          93 callsubr
          -241 -67 callgsubr
          377 -37 callgsubr
        </CharString>
        <CharString name="dvK_DA">
          785 1236 485 rmoveto
          -606 -47 callsubr
          638 vlineto
          112 -137 173 callsubr
          -1525 -93 callgsubr
          191 hlineto
          -42 callgsubr
          -251 -26 callsubr
        </CharString>
        <CharString name="dvK_JA">
          1115 1574 485 rmoveto
          43 callsubr
          -330 vlineto
          -62 callsubr
          976 334 callgsubr
          -1855 -104 callgsubr
          218 52 callgsubr
        </CharString>
        <CharString name="dvK_KA">
          1115 1218 171 rmoveto
          -95 callgsubr
          -538 -47 callsubr
          620 vlineto
          617 hmoveto
          59 -1855 -93 callgsubr
          194 hlineto
          -56 callsubr
        </CharString>
        <CharString name="dvK_KHA">
          1419 1200 329 rmoveto
          100 callsubr
          -201 187 -337 -47 callsubr
          602 vlineto
          939 59 rmoveto
          -2159 -104 callgsubr
          223 -348 hlineto
          15 callgsubr
          -7 -88 callsubr
          149 283 callgsubr
          26 24 53 hvcurveto
          247 568 -347 vlineto
          -28 -10 -10 -29 vhcurveto
          -253 hlineto
          -26 -5 7 24 hvcurveto
          156 -105 callsubr
          247 59 -304 93 callgsubr
          17 11 3 10 7 hvcurveto
          -133 124 callsubr
        </CharString>
        <CharString name="dvK_LA">
          1148 1607 179 callsubr
          -580 -47 callsubr
          1009 vlineto
          262 59 rmoveto
          -1889 -104 callgsubr
          191 hlineto
          -42 callgsubr
          -329 -55 callsubr
        </CharString>
        <CharString name="dvK_MA">
          1098 1558 485 rmoveto
          -214 78 214 hlineto
          -327 -395 -107 callgsubr
          59 vmoveto
          -601 -47 callsubr
          633 vlineto
          587 59 rmoveto
          -1838 -104 callgsubr
          193 hlineto
          -42 callgsubr
          -251 8 callgsubr
        </CharString>
        <CharString name="dvK_NA">
          1086 1545 485 rmoveto
          -915 -47 callsubr
          947 vlineto
          -321 -395 -107 callgsubr
          582 196 rmoveto
          -1826 -104 callgsubr
          184 hlineto
          -42 callgsubr
          -251 vlineto
          -53 25 -25 53 vhcurveto
          -43 callgsubr
        </CharString>
        <CharString name="dvK_NNA">
          1111 1233 168 -14 callgsubr
          -603 -78 177 callsubr
          230 -78 vlineto
          1003 137 rmoveto
          -1851 -104 callgsubr
          196 -270 hlineto
          -87 callsubr
          251 callsubr
        </CharString>
        <CharString name="dvK_PA">
          796 1256 -35 callgsubr
          -626 -78 177 callsubr
          240 -78 vlineto
          679 137 rmoveto
          -1537 -104 callgsubr
          206 -270 99 callsubr
        </CharString>
        <CharString name="dvK_PHA">
          1160 1256 -35 callgsubr
          -626 -78 177 callsubr
          240 -78 vlineto
          1042 78 rmoveto
          59 -1900 -93 callgsubr
          206 -270 hlineto
          -87 callsubr
          307 hlineto
          14 11 3 6 7 hvcurveto
          -87 -94 callgsubr
        </CharString>
        <CharString name="dvK_P_RA">
          802 1262 36 callgsubr
          -632 -78 177 callsubr
          246 -78 vlineto
          679 137 rmoveto
          -1543 -104 callgsubr
          212 -235 hlineto
          28 callsubr
        </CharString>
        <CharString name="dvK_R">
          41 630 485 67 callsubr
        </CharString>
        <CharString name="dvK_RA">
          384 1104 563 rmoveto
          59 -1124 -59 506 -389 vlineto
          -26 -8 -8 -26 vhcurveto
          -215 hlineto
          -26 -5 5 26 hvcurveto
          224 vlineto
          25 5 6 26 vhcurveto
          199 59 -265 hlineto
          -53 -25 -25 -53 hvcurveto
          -248 -14 callsubr
        </CharString>
        <CharString name="dvK_SA">
          1105 1564 339 rmoveto
          -223 hlineto
          -81 callgsubr
          232 hlineto
          -632 -224 rmoveto
          222 callsubr
          628 283 rmoveto
          -1846 -104 callgsubr
          187 -348 hlineto
          -10 callgsubr
        </CharString>
        <CharString name="dvK_SHA">
          1132 899 622 327 callsubr
          -59 -191 vlineto
          -62 callsubr
          61 59 -679 -93 callgsubr
          300 106 hlineto
          25 7 -85 callsubr
          231 -20 callgsubr
          -177 42 callgsubr
          -263 47 -113 -293 hlineto
          -53 25 -25 53 vhcurveto
          363 146 callsubr
          -262 -622 91 callsubr
        </CharString>
        <CharString name="dvK_SS">
          27 253 531 rmoveto
          86 callgsubr
          200 hlineto
          -51 callsubr
          -137 vlineto
          130 callgsubr
          637 -90 rmoveto
          58 -276 vlineto
          -40 callgsubr
          endchar
        </CharString>
        <CharString name="dvK_SSA">
          381 517 394 53 callsubr
          584 91 rmoveto
          -261 -260 -226 hlineto
          -40 callgsubr
          607 -304 126 callgsubr
        </CharString>
        <CharString name="dvK_SS_MA">
          1107 1566 485 rmoveto
          -214 78 214 hlineto
          -326 137 callgsubr
          -723 -32 53 callsubr
          1310 91 rmoveto
          -1067 -59 480 -78 -330 hlineto
          -94 callsubr
          -45 -218 vlineto
          -40 callgsubr
          599 -148 hlineto
          -53 25 -25 53 vhcurveto
          29 callsubr
          149 vlineto
          endchar
        </CharString>
        <CharString name="dvK_SS_M_YA">
          1754 2214 175 -103 callsubr
          -974 137 callgsubr
          -723 -32 53 callsubr
          1957 91 rmoveto
          -1710 -59 476 -78 -330 hlineto
          -94 callsubr
          -45 -218 vlineto
          -40 callgsubr
          599 -148 hlineto
          -8 callsubr
          270 213 59 -213 78 512 vlineto
          -96 callsubr
        </CharString>
        <CharString name="dvK_SS_VA">
          808 517 394 53 callsubr
          1011 91 rmoveto
          -776 -59 516 -392 hlineto
          -16 callgsubr
          -45 -227 vlineto
          -40 callgsubr
          608 -148 hlineto
          152 callsubr
        </CharString>
        <CharString name="dvK_SS_YA">
          1012 1472 175 59 callsubr
          136 253 vlineto
          175 callgsubr
          151 -45 callgsubr
          216 hlineto
          -955 -168 rmoveto
          130 callgsubr
          136 25 callsubr
          200 hlineto
          -51 callsubr
          1215 91 rmoveto
          -983 -59 373 hlineto
          -51 callsubr
          -137 vlineto
          -25 -6 -7 -26 vhcurveto
          -508 hlineto
          8 5 4 10 17 vvcurveto
          149 vlineto
          53 -25 24 -53 vhcurveto
          337 callgsubr
          -25 -24 -53 hvcurveto
          -149 vlineto
          -17 4 -10 8 -5 vhcurveto
          -49 -3 -18 -31 -46 vvcurveto
          -127 -67 callgsubr
          309 148 callsubr
          223 -112 -48 vlineto
          150 callgsubr
          -240 -87 callgsubr
          106 -84 callsubr
          589 -149 147 callgsubr
        </CharString>
        <CharString name="dvK_S_DDA">
          1514 1661 485 327 callsubr
          -68 -219 vlineto
          -81 callgsubr
          623 -78 hlineto
          -1023 -146 rmoveto
          137 -1 9 -324 vlineto
          -62 callsubr
          623 vlineto
          -72 callgsubr
          869 87 325 callsubr
          -2254 -93 callgsubr
          210 -58 callgsubr
          640 vlineto
          -19 12 22 -9 32 hhcurveto
          -66 callgsubr
        </CharString>
        <CharString name="dvK_S_P_LA">
          2294 2753 485 rmoveto
          -284 hlineto
          -33 -12 -14 -25 -5 hvcurveto
          -4 hlineto
          27 -5 -16 12 -39 hhcurveto
          -309 184 callsubr
          -227 178 callgsubr
          1077 vlineto
          -1412 -224 rmoveto
          -81 callgsubr
          234 -224 hlineto
          -634 hmoveto
          222 callsubr
          1816 283 rmoveto
          -3034 -104 callgsubr
          187 -58 callgsubr
          634 200 callsubr
          294 101 callsubr
        </CharString>
        <CharString name="dvK_S_P_RA">
          1556 2016 36 callgsubr
          -653 -224 rmoveto
          -81 callgsubr
          244 -224 hlineto
          -644 hmoveto
          128 callsubr
          1057 283 rmoveto
          -2297 -104 callgsubr
          209 -58 callgsubr
          644 -89 109 callsubr
        </CharString>
        <CharString name="dvK_S_TA">
          1583 2043 485 rmoveto
          -373 275 callsubr
          -229 vlineto
          -81 callgsubr
          689 hlineto
          -1089 -224 rmoveto
          128 callsubr
          1084 283 rmoveto
          -2324 -104 callgsubr
          209 -58 callgsubr
          638 -202 -46 callgsubr
        </CharString>
        <CharString name="dvK_S_TTA">
          1540 1672 485 rmoveto
          -48 callsubr
          -68 -230 vlineto
          -81 callgsubr
          637 -78 hlineto
          -1037 -146 rmoveto
          128 callsubr
          883 87 173 callsubr
          -2280 -93 callgsubr
          209 -58 callgsubr
          639 -202 -67 callsubr
        </CharString>
        <CharString name="dvK_TA">
          398 1118 563 rmoveto
          59 -1138 -59 516 -78 -464 -59 75 vlineto
          93 callsubr
          -319 -67 callgsubr
          259 59 -194 -101 callsubr
          305 vlineto
          24 5 7 25 vhcurveto
          256 -426 111 392 hlineto
          -28 callsubr
          220 16 callsubr
          -305 -18 callsubr
          -194 -59 259 -43 callsubr
          329 21 callsubr
          -287 -47 callsubr
          vlineto
          endchar
        </CharString>
        <CharString name="dvK_THA">
          1072 1792 7 callgsubr
          -260 226 callgsubr
          -523 222 callgsubr
          -25 -25 -53 hvcurveto
          -59 -203 vlineto
          -62 callsubr
          69 59 -687 -93 callgsubr
          312 106 hlineto
          -99 callgsubr
          212 267 callsubr
          -136 vlineto
          -25 -7 199 callgsubr
          26 -25 53 vhcurveto
          590 -37 callgsubr
        </CharString>
        <CharString name="dvK_TTA">
          772 1223 485 rmoveto
          -593 -47 callsubr
          625 vlineto
          112 -137 173 callsubr
          -1512 -93 callgsubr
          194 hlineto
          -42 callgsubr
          -329 -67 callsubr
        </CharString>
        <CharString name="dvK_T_RA">
          835 1296 276 rmoveto
          -72 hlineto
          -150 144 rlineto
          58 -63 -49 7 -76 hhcurveto
          -256 -47 callsubr
          698 vlineto
          259 59 rmoveto
          -1575 -104 callgsubr
          210 hlineto
          45 46 -7 -48 50 hvcurveto
          137 -128 -280 -243 rlineto
          144 hlineto
          242 212 rlineto
          70 -212 110 81 callsubr
        </CharString>
        <CharString name="dvK_T_VA">
          1198 1658 171 rmoveto
          -63 callgsubr
          -978 -47 callsubr
          1060 vlineto
          205 callgsubr
          -1938 -104 callgsubr
          190 hlineto
          194 callgsubr
          266 hlineto
          -42 callgsubr
          -251 -38 callsubr
        </CharString>
        <CharString name="dvK_T_YA">
          1499 1958 47 callsubr
          -2239 -104 callgsubr
          196 hlineto
          -42 callgsubr
          -76 callgsubr
          338 59 -404 hlineto
          -2 0 -273 -47 callsubr
          1011 vlineto
          -81 callsubr
          -1 callsubr
          535 hlineto
          17 12 4 9 7 hvcurveto
          -91 -68 callsubr
        </CharString>
        <CharString name="dvK_VA">
          786 1246 171 rmoveto
          -63 callgsubr
          -566 -47 callsubr
          648 vlineto
          205 callgsubr
          -1526 -104 callgsubr
          187 hlineto
          -42 callgsubr
          -251 -38 callsubr
        </CharString>
        <CharString name="dvK_V_YA">
          1484 1944 175 -103 callsubr
          -986 -426 rmoveto
          240 callgsubr
          996 218 callgsubr
          -2224 -104 callgsubr
          183 hlineto
          -42 callgsubr
          131 callgsubr
          371 22 callsubr
          -30 callsubr
        </CharString>
        <CharString name="dvK_YA">
          1015 1476 175 -44 callsubr
          -1756 -104 callgsubr
          194 59 -196 -47 callsubr
          528 vlineto
          -96 callsubr
        </CharString>
        <CharString name="dvKx">
          44 119 -87 -2 callsubr
          511 472 177 callsubr
          253 59 -871 -93 callgsubr
          274 59 hlineto
          endchar
        </CharString>
        <CharString name="dvKxA">
          383 164 -87 -2 callsubr
          939 550 rmoveto
          59 -1123 -59 506 -392 vlineto
          -26 -8 -8 -26 vhcurveto
          -215 hlineto
          -26 -6 6 25 hvcurveto
          227 vlineto
          25 6 6 26 vhcurveto
          199 59 -265 hlineto
          -53 -25 -25 -53 hvcurveto
          -50 callgsubr
        </CharString>
        <CharString name="dvKx_BA">
          861 119 -87 -2 callsubr
          843 413 rmoveto
          316 59 -648 -47 callsubr
          722 -250 vlineto
          290 callsubr
          -362 -40 18 callsubr
          295 485 rmoveto
          -1601 -104 callgsubr
          194 hlineto
          68 callgsubr
        </CharString>
        <CharString name="dvKx_KxA">
          1131 119 -87 -2 callsubr
          792 -100 -2 callsubr
          322 158 rmoveto
          -98 callgsubr
          -4 -4 0 -4 hhcurveto
          0 -276 vlineto
          -62 callsubr
          635 vlineto
          617 hmoveto
          59 -1870 -93 callgsubr
          209 hlineto
          -56 callsubr
        </CharString>
        <CharString name="dvKx_MA">
          1088 119 -87 -2 callsubr
          1429 472 rmoveto
          -214 78 214 hlineto
          -327 -395 -107 callgsubr
          59 vmoveto
          -591 -47 callsubr
          623 vlineto
          587 59 rmoveto
          -1828 -104 callgsubr
          183 hlineto
          -42 callgsubr
          -251 8 callgsubr
        </CharString>
        <CharString name="dvKx_PHA">
          1175 119 -87 -2 callsubr
          1153 250 callsubr
          -78 177 callsubr
          256 -78 vlineto
          1042 78 rmoveto
          59 -1916 -93 callgsubr
          222 -270 hlineto
          -87 callsubr
          307 hlineto
          14 11 3 6 7 hvcurveto
          -87 -94 callgsubr
        </CharString>
        <CharString name="dvKx_PHxA">
          1175 119 -90 rmoveto
          113 99 -113 hlineto
          766 -96 -2 callsubr
          387 250 callsubr
          -78 177 callsubr
          256 -78 vlineto
          1042 78 rmoveto
          59 -1916 -93 callgsubr
          222 -270 hlineto
          -87 callsubr
          307 hlineto
          14 11 3 6 7 hvcurveto
          -87 -94 callgsubr
        </CharString>
        <CharString name="dvKx_R">
          41 337 -235 -2 callsubr
          293 620 67 callsubr
        </CharString>
        <CharString name="dvKx_RA">
          384 337 -235 -2 callsubr
          767 698 rmoveto
          59 -1124 -59 506 -389 vlineto
          -26 -8 -8 -26 vhcurveto
          -215 hlineto
          -26 -5 5 26 hvcurveto
          224 vlineto
          25 5 6 26 vhcurveto
          199 59 -265 hlineto
          -53 -25 -25 -53 hvcurveto
          -248 -14 callsubr
        </CharString>
        <CharString name="dvKx_TA">
          814 119 -87 -2 callsubr
          1155 472 rmoveto
          -644 -47 callsubr
          676 334 callgsubr
          -1555 -104 callgsubr
          192 hlineto
          -42 callgsubr
          -329 -46 callgsubr
        </CharString>
        <CharString name="dvL">
          78 885 7 callgsubr
          -905 -59 905 hlineto
          -274 -78 rmoveto
          -32 -13 -14 -25 -5 hvcurveto
          -4 hlineto
          10 callsubr
          -310 hlineto
          -94 callsubr
          -105 callgsubr
          286 59 hlineto
          endchar
        </CharString>
        <CharString name="dvLA">
          437 1157 7 callgsubr
          -1177 -59 915 -78 243 callgsubr
          -329 -55 callsubr
        </CharString>
        <CharString name="dvLL">
          355 37 callgsubr
          -896 137 rmoveto
          -59 1095 59 vlineto
          endchar
        </CharString>
        <CharString name="dvLLA">
          355 814 426 rmoveto
          -4 callsubr
          -227 -64 callgsubr
          -204 -98 callsubr
          -133 -258 127 callgsubr
          -204 -98 callsubr
          204 -20 callgsubr
          598 168 rmoveto
          59 -1095 -59 694 -78 -95 vlineto
          -32 -14 -13 -26 -3 hvcurveto
          -4 hlineto
          27 -5 -16 12 -39 hhcurveto
          -287 -16 callsubr
          287 hlineto
          39 16 12 27 5 hvcurveto
          4 hlineto
          -27 4 13 -12 32 hhcurveto
          297 -43 callsubr
          251 21 callsubr
          -90 78 hlineto
          endchar
        </CharString>
        <CharString name="dvLL_YA">
          1309 37 callgsubr
          893 -310 -44 callsubr
          -2049 -59 1439 hlineto
          -96 callsubr
        </CharString>
        <CharString name="dvL_BA">
          890 995 230 callsubr
          295 485 rmoveto
          -1630 -59 1369 221 callsubr
          -696 105 callsubr
          -105 callgsubr
          209 hlineto
          68 callgsubr
        </CharString>
        <CharString name="dvL_BHA">
          1119 646 7 callgsubr
          -666 -59 666 hlineto
          607 293 callsubr
          112 -3 callsubr
          269 hlineto
          586 312 rmoveto
          -261 -253 -213 294 callsubr
          -59 -235 vlineto
          -32 -13 -14 -25 -5 hvcurveto
          -4 hlineto
          10 callsubr
          -310 hlineto
          -94 callsubr
          -105 callgsubr
          313 106 hlineto
          163 callsubr
          213 -310 -68 callsubr
        </CharString>
        <CharString name="dvL_DA">
          827 1390 142 callsubr
          -1567 -59 1298 -78 -336 vlineto
          -10 0 -321 105 callsubr
          -105 callgsubr
          219 hlineto
          -42 callgsubr
          -251 -26 callsubr
        </CharString>
        <CharString name="dvL_DDA">
          781 1357 317 callsubr
          -1521 -59 1265 -78 -634 vlineto
          -32 -13 -14 -25 -5 hvcurveto
          -4 hlineto
          10 callsubr
          -310 hlineto
          -94 callsubr
          -105 callgsubr
          205 hlineto
          -42 callgsubr
          213 callsubr
          -66 callgsubr
        </CharString>
        <CharString name="dvL_DDHA">
          822 1362 104 callsubr
          180 59 -1562 -59 1269 -78 -638 vlineto
          -32 -13 -14 -25 -5 hvcurveto
          -4 hlineto
          10 callsubr
          -310 hlineto
          -94 callsubr
          -105 callgsubr
          205 hlineto
          -42 callgsubr
          -11 callsubr
          endchar
        </CharString>
        <CharString name="dvL_D_RA">
          824 1387 104 callsubr
          158 59 -1565 -59 1296 -78 -337 vlineto
          -7 0 -321 105 callsubr
          -105 callgsubr
          216 hlineto
          -42 callgsubr
          20 callgsubr
          endchar
        </CharString>
        <CharString name="dvL_GA">
          1226 557 446 rmoveto
          10 callsubr
          -310 hlineto
          -94 callsubr
          -105 callgsubr
          198 59 -233 hlineto
          -32 -13 -14 -25 -5 hvcurveto
          480 -309 rmoveto
          -64 callsubr
          615 485 rmoveto
          -1966 -59 1382 259 callgsubr
          hlineto
          -53 -25 -25 -53 hvcurveto
          -192 -31 callsubr
          211 130 callsubr
        </CharString>
        <CharString name="dvL_HA">
          807 1378 426 rmoveto
          335 callgsubr
          -1547 -59 1287 -78 -329 vlineto
          -6 0 -321 105 callsubr
          -105 callgsubr
          214 hlineto
          -42 callgsubr
          83 callsubr
          -159 -11 callgsubr
        </CharString>
        <CharString name="dvL_JA">
          1120 1840 7 callgsubr
          -1860 -59 1599 54 callgsubr
          -354 vlineto
          -32 -13 -14 -25 -5 hvcurveto
          -4 hlineto
          10 callsubr
          -310 hlineto
          -94 callsubr
          -105 callgsubr
          209 52 callgsubr
        </CharString>
        <CharString name="dvL_JxA">
          1133 1067 -87 -2 callsubr
          786 609 rmoveto
          -1873 -59 1612 54 callgsubr
          -367 vlineto
          -32 -13 -14 -25 -5 hvcurveto
          -4 hlineto
          10 callsubr
          -310 hlineto
          -94 callsubr
          -105 callgsubr
          222 52 callgsubr
        </CharString>
        <CharString name="dvL_KA">
          1124 1843 563 rmoveto
          59 -1863 -59 1246 136 callsubr
          -565 105 callsubr
          -105 callgsubr
          188 hlineto
          -56 callsubr
        </CharString>
        <CharString name="dvL_KHA">
          1410 2129 7 callgsubr
          -2149 -59 1210 322 callgsubr
          -347 105 callsubr
          -105 callgsubr
          199 63 callsubr
        </CharString>
        <CharString name="dvL_K_YA">
          1770 2231 175 -44 callsubr
          -2511 -59 1245 -392 hlineto
          -71 callsubr
          -215 -106 callsubr
          199 59 -564 105 callsubr
          -105 callgsubr
          187 187 callsubr
          210 59 -212 -47 callsubr
          544 vlineto
          -96 callsubr
        </CharString>
        <CharString name="dvL_LA">
          1187 1907 7 callgsubr
          -1927 -59 1665 -78 -284 hlineto
          -32 -13 -14 -25 -5 hvcurveto
          -4 hlineto
          10 callsubr
          -310 hlineto
          -6 0 -321 105 callsubr
          -105 callgsubr
          215 hlineto
          -42 callgsubr
          -329 -55 callsubr
        </CharString>
</ttFont>
